<svg width="16" height="17" viewBox="0 0 16 17" fill="none" xmlns="http://www.w3.org/2000/svg">
<path d="M8 16.04C7.56 16.04 7.22 15.92 6.98 15.68C6.74 15.42 6.62 15.07 6.62 14.63V9.71H1.79C1.37 9.71 1.04 9.6 0.8 9.38C0.56 9.14 0.44 8.81 0.44 8.39C0.44 7.97 0.56 7.65 0.8 7.43C1.04 7.19 1.37 7.07 1.79 7.07H6.62V2.3C6.62 1.86 6.74 1.52 6.98 1.28C7.22 1.04 7.57 0.92 8.03 0.92C8.47 0.92 8.8 1.04 9.02 1.28C9.26 1.52 9.38 1.86 9.38 2.3V7.07H14.21C14.65 7.07 14.98 7.19 15.2 7.43C15.44 7.65 15.56 7.97 15.56 8.39C15.56 8.81 15.44 9.14 15.2 9.38C14.98 9.6 14.65 9.71 14.21 9.71H9.38V14.63C9.38 15.07 9.26 15.42 9.02 15.68C8.8 15.92 8.46 16.04 8 16.04Z" fill="white"/>
</svg>