<svg width="14" height="13" viewBox="0 0 14 13" fill="none" xmlns="http://www.w3.org/2000/svg">
<g clip-path="url(#clip0_209_4415)">
<path d="M2.50195 12.3107C2.22852 12.3107 1.97656 12.2484 1.74609 12.1239C1.51953 11.9957 1.33789 11.8254 1.20117 11.613C1.06836 11.397 1.00195 11.1608 1.00195 10.9044V4.34558C1.00195 4.08923 1.06836 3.85486 1.20117 3.64246C1.33789 3.42639 1.51953 3.2561 1.74609 3.13159C1.97656 3.00342 2.22852 2.93933 2.50195 2.93933H9.49805C9.77148 2.93933 10.0215 3.00342 10.248 3.13159C10.4785 3.2561 10.6602 3.42639 10.793 3.64246C10.9297 3.85486 10.998 4.08923 10.998 4.34558V10.9044C10.998 11.1608 10.9297 11.397 10.793 11.613C10.6602 11.8254 10.4785 11.9957 10.248 12.1239C10.0215 12.2484 9.77148 12.3107 9.49805 12.3107H2.50195ZM9.49805 11.3768C9.63477 11.3768 9.75195 11.3311 9.84961 11.2395C9.95117 11.1443 10.002 11.0326 10.002 10.9044V4.34558C10.002 4.21741 9.95117 4.10754 9.84961 4.01599C9.75195 3.92078 9.63477 3.87317 9.49805 3.87317H2.50195C2.36523 3.87317 2.24609 3.92078 2.14453 4.01599C2.04688 4.10754 1.99805 4.21741 1.99805 4.34558V10.9044C1.99805 11.0326 2.04688 11.1443 2.14453 11.2395C2.24609 11.3311 2.36523 11.3768 2.50195 11.3768H9.49805Z" fill="white"/>
<path fill-rule="evenodd" clip-rule="evenodd" d="M12 9.31067H12.498C12.7715 9.31067 13.0215 9.24841 13.248 9.1239C13.4785 8.99573 13.6602 8.82544 13.793 8.61304C13.9297 8.39697 13.998 8.16077 13.998 7.90442V1.34558C13.998 1.08923 13.9297 0.854858 13.793 0.642456C13.6602 0.426392 13.4785 0.256104 13.248 0.131592C13.0215 0.00341797 12.7715 -0.0606689 12.498 -0.0606689H5.50195C5.22852 -0.0606689 4.97656 0.00341797 4.74609 0.131592C4.51953 0.256104 4.33789 0.426392 4.20117 0.642456C4.06836 0.854858 4.00195 1.08923 4.00195 1.34558V3H4.99805V1.34558C4.99805 1.21741 5.04688 1.10754 5.14453 1.01599C5.24609 0.920776 5.36523 0.873169 5.50195 0.873169H12.498C12.6348 0.873169 12.752 0.920776 12.8496 1.01599C12.9512 1.10754 13.002 1.21741 13.002 1.34558V7.90442C13.002 8.03259 12.9512 8.14429 12.8496 8.2395C12.752 8.33105 12.6348 8.37683 12.498 8.37683H12V9.31067Z" fill="white"/>
</g>
<defs>
<clipPath id="clip0_209_4415">
<rect width="14" height="13" fill="white"/>
</clipPath>
</defs>
</svg>
