<svg width="15" height="15" viewBox="0 0 15 15" fill="none" xmlns="http://www.w3.org/2000/svg">
<path d="M11.0303 6.53033C11.3232 6.23744 11.3232 5.76256 11.0303 5.46967C10.7374 5.17678 10.2626 5.17678 9.96967 5.46967L6.75 8.68934L5.03033 6.96967C4.73744 6.67678 4.26256 6.67678 3.96967 6.96967C3.67678 7.26256 3.67678 7.73744 3.96967 8.03033L6.21967 10.2803C6.51256 10.5732 6.98744 10.5732 7.28033 10.2803L11.0303 6.53033Z" fill="#776284"/>
<path fill-rule="evenodd" clip-rule="evenodd" d="M7.5 0C3.35786 0 0 3.35786 0 7.5C0 11.6421 3.35786 15 7.5 15C11.6421 15 15 11.6421 15 7.5C15 3.35786 11.6421 0 7.5 0ZM1.5 7.5C1.5 4.18629 4.18629 1.5 7.5 1.5C10.8137 1.5 13.5 4.18629 13.5 7.5C13.5 10.8137 10.8137 13.5 7.5 13.5C4.18629 13.5 1.5 10.8137 1.5 7.5Z" fill="#776284"/>
</svg>
