<svg width="23" height="18" viewBox="0 0 23 18" fill="none" xmlns="http://www.w3.org/2000/svg">
<g clip-path="url(#clip0_1050_691)">
<path d="M18.4459 0H8.78306C7.37946 0 6.23749 0.893716 6.23749 1.99218V2.23669H4.55387C3.15027 2.23669 2.0083 3.13041 2.0083 4.22887V16.0079C2.0083 17.1064 3.15027 18.0001 4.55387 18.0001H14.2167C15.6203 18.0001 16.7622 17.1064 16.7622 16.0079V15.7634H18.4458C19.8494 15.7634 20.9914 14.8697 20.9914 13.7712V1.99218C20.9915 0.893716 19.8495 0 18.4459 0ZM15.1203 16.0079C15.1203 16.3978 14.7149 16.715 14.2168 16.715H4.55387C4.05568 16.715 3.65032 16.3978 3.65032 16.0079V4.22879C3.65032 3.8389 4.05568 3.52166 4.55387 3.52166H14.2167C14.7149 3.52166 15.1202 3.8389 15.1202 4.22879V16.0079H15.1203ZM19.3495 13.7712C19.3495 14.1611 18.9441 14.4783 18.4459 14.4783H16.7623V4.22879C16.7623 3.13032 15.6203 2.2366 14.2168 2.2366H7.87951V1.9921C7.87951 1.60221 8.28487 1.28497 8.78306 1.28497H18.4459C18.9441 1.28497 19.3495 1.60221 19.3495 1.9921V13.7712Z" fill="#776284"/>
</g>
<defs>
<clipPath id="clip0_1050_691">
<rect width="23" height="18" fill="white"/>
</clipPath>
</defs>
</svg>
