<svg width="12" height="15" viewBox="0 0 12 15" fill="none" xmlns="http://www.w3.org/2000/svg">
<path d="M11.805 3.99756L8.475 0.24763C8.40488 0.169938 8.31927 0.10778 8.22369 0.0651554C8.12811 0.0225307 8.02466 0.000382347 7.92 0.00013498H1.92C1.67081 -0.00283729 1.42348 0.0433042 1.19213 0.135925C0.960771 0.228545 0.749928 0.365831 0.571636 0.539941C0.393344 0.714051 0.251096 0.921576 0.153014 1.15066C0.0549316 1.37975 0.00293728 1.62592 0 1.8751V13.1249C0.00293728 13.3741 0.0549316 13.6202 0.153014 13.8493C0.251096 14.0784 0.393344 14.2859 0.571636 14.4601C0.749928 14.6342 0.960771 14.7715 1.19213 14.8641C1.42348 14.9567 1.67081 15.0028 1.92 14.9999H10.08C10.3292 15.0028 10.5765 14.9567 10.8079 14.8641C11.0392 14.7715 11.2501 14.6342 11.4284 14.4601C11.6067 14.2859 11.7489 14.0784 11.847 13.8493C11.9451 13.6202 11.9971 13.3741 12 13.1249V4.50005C11.9995 4.31418 11.93 4.13511 11.805 3.99756ZM3.75 7.5H6C6.19891 7.5 6.38968 7.57902 6.53033 7.71967C6.67098 7.86032 6.75 8.05108 6.75 8.24999C6.75 8.4489 6.67098 8.63966 6.53033 8.78031C6.38968 8.92096 6.19891 8.99997 6 8.99997H3.75C3.55109 8.99997 3.36032 8.92096 3.21967 8.78031C3.07902 8.63966 3 8.4489 3 8.24999C3 8.05108 3.07902 7.86032 3.21967 7.71967C3.36032 7.57902 3.55109 7.5 3.75 7.5ZM8.25 11.9999H3.75C3.55109 11.9999 3.36032 11.9209 3.21967 11.7803C3.07902 11.6396 3 11.4488 3 11.2499C3 11.051 3.07902 10.8603 3.21967 10.7196C3.36032 10.579 3.55109 10.4999 3.75 10.4999H8.25C8.44891 10.4999 8.63968 10.579 8.78033 10.7196C8.92098 10.8603 9 11.051 9 11.2499C9 11.4488 8.92098 11.6396 8.78033 11.7803C8.63968 11.9209 8.44891 11.9999 8.25 11.9999ZM8.0325 4.50005C7.87788 4.48483 7.73543 4.40948 7.63583 4.29025C7.53623 4.17101 7.48745 4.01742 7.5 3.86257V1.50011L10.305 4.50005H8.0325Z" fill="white"/>
</svg>
