<svg width="24" height="27" viewBox="0 0 24 27" fill="none" xmlns="http://www.w3.org/2000/svg">
<path fill-rule="evenodd" clip-rule="evenodd" d="M23 12.3496L23 17.3496C23 19.5587 21.2091 21.3496 19 21.3496L7 21.3496C4.79086 21.3496 3 19.5587 3 17.3496L3 12.3496C3 10.1405 4.79086 8.34961 7 8.34961L9 8.34961L12.25 8.34961L12.25 14.5389L10.5303 12.8193C10.2374 12.5264 9.76256 12.5264 9.46967 12.8193C9.17678 13.1122 9.17678 13.587 9.46967 13.8799L11.7626 16.1728C12.446 16.8562 13.554 16.8563 14.2374 16.1728L16.5303 13.8799C16.8232 13.587 16.8232 13.1122 16.5303 12.8193C16.2374 12.5264 15.7626 12.5264 15.4697 12.8193L13.75 14.5389L13.75 8.34961L17 8.34961L19 8.34961C21.2091 8.34961 23 10.1405 23 12.3496ZM13.75 8.34961L13.75 3.34961C13.75 2.9354 13.4142 2.59961 13 2.59961C12.5858 2.59961 12.25 2.9354 12.25 3.34961L12.25 8.34961L13.75 8.34961Z" fill="white"/>
</svg>
