<svg width="21" height="21" viewBox="0 0 21 21" fill="none" xmlns="http://www.w3.org/2000/svg">
<path fill-rule="evenodd" clip-rule="evenodd" d="M18.0378 0.720099C17.0731 -0.240546 15.5097 -0.239958 14.5457 0.721415L7.0903 8.15834C6.49401 8.75305 6.14344 9.54915 6.10796 10.3891L6.00182 12.9018C5.9535 14.046 6.87116 14.9998 8.02025 14.9999L10.4924 15C11.4 15 12.2692 14.6349 12.9029 13.9874L20.2984 6.40804C21.2425 5.44344 21.2326 3.90152 20.2761 2.94907L18.0378 0.720099ZM15.4985 1.67018C15.9366 1.23319 16.6473 1.23293 17.0858 1.66958L19.3241 3.89856C19.7588 4.33149 19.7634 5.03236 19.3342 5.47082L17.8489 6.98837L14.0046 3.16008L15.4985 1.67018ZM13.0526 4.10956L8.04304 9.10711C7.68526 9.46393 7.47492 9.9416 7.45363 10.4456L7.3475 12.9583C7.33139 13.3397 7.63728 13.6576 8.02031 13.6576L10.4924 13.6577C11.037 13.6578 11.5585 13.4387 11.9388 13.0502L16.9084 7.94931L13.0526 4.10956Z" fill="white"/>
<path d="M19 11V15C19 17.7614 16.7614 20 14 20H6C3.23858 20 1 17.7614 1 15V7C1 4.23858 3.23858 2 6 2H10" stroke="white" stroke-width="1.5" stroke-linecap="round"/>
</svg>
