<svg width="52" height="53" viewBox="0 0 52 53" fill="none" xmlns="http://www.w3.org/2000/svg">
<path fill-rule="evenodd" clip-rule="evenodd" d="M13.907 0.75C6.22637 0.75 0 6.97637 0 14.657V38.843C0 46.5236 6.22637 52.75 13.907 52.75H38.093C45.7736 52.75 52 46.5236 52 38.843V14.657C52 6.97637 45.7736 0.75 38.093 0.75H13.907ZM32.4138 20.3373C33.1222 21.0456 33.1222 22.1942 32.4138 22.9026L28.5658 26.7506L32.4138 30.5986C33.1222 31.307 33.1222 32.4555 32.4138 33.1639C31.7055 33.8723 30.5569 33.8723 29.8485 33.1639L26.0005 29.3159L22.1526 33.1638C21.4442 33.8722 20.2956 33.8722 19.5873 33.1638C18.8789 32.4555 18.8789 31.3069 19.5873 30.5985L23.4352 26.7506L19.5873 22.9027C18.8789 22.1943 18.8789 21.0457 19.5873 20.3373C20.2956 19.6289 21.4442 19.6289 22.1526 20.3373L26.0005 24.1853L29.8485 20.3373C30.5569 19.6289 31.7055 19.6289 32.4138 20.3373Z" fill="white"/>
</svg>
