<svg width="17" height="17" viewBox="0 0 17 17" fill="none" xmlns="http://www.w3.org/2000/svg">
<path d="M7.22454 3.74163L7.22468 3.74145C7.39185 3.53619 7.6359 3.40625 7.90773 3.40625C8.17957 3.40625 8.42361 3.53619 8.59078 3.74145C8.90445 4.12658 8.90445 4.71313 8.59078 5.09826L6.64485 7.48758H15.5825C16.1816 7.48758 16.5 8.0401 16.5 8.50024C16.5 8.96037 16.1816 9.5129 15.5825 9.5129H6.64485L8.59078 11.9022C8.90445 12.2873 8.90445 12.8739 8.59078 13.259C8.42884 13.4579 8.18484 13.5952 7.90928 13.5952C7.63877 13.5952 7.39384 13.4684 7.22541 13.2561L3.90303 9.17674C3.7487 8.98725 3.66701 8.74107 3.66701 8.50024C3.66701 8.2692 3.74003 8.01852 3.90542 7.82079L7.22454 3.74163Z" fill="#6A6A6A" stroke="#6A6A6A"/>
<path d="M1.41756 0.5C2.01669 0.5 2.33508 1.05252 2.33508 1.51266V15.4873C2.33508 15.9475 2.01669 16.5 1.41756 16.5C0.818425 16.5 0.500031 15.9475 0.500031 15.4873V1.51266C0.500031 1.05252 0.818425 0.5 1.41756 0.5Z" fill="#6A6A6A" stroke="#6A6A6A"/>
</svg>
