<svg width="17" height="17" viewBox="0 0 17 17" fill="none" xmlns="http://www.w3.org/2000/svg">
<path d="M7.22452 3.74163C7.39169 3.53637 7.63588 3.40625 7.90771 3.40625C8.17955 3.40625 8.42359 3.53619 8.59076 3.74145C8.90443 4.12658 8.90443 4.71313 8.59076 5.09826L6.64483 7.48758H15.5825C16.1816 7.48758 16.5 8.0401 16.5 8.50024C16.5 8.96037 16.1816 9.5129 15.5825 9.5129H6.64483L8.59076 11.9022C8.90443 12.2873 8.90443 12.8739 8.59076 13.259C8.42882 13.4579 8.18482 13.5952 7.90926 13.5952C7.63875 13.5952 7.39382 13.4684 7.22539 13.2561L3.90301 9.17674C3.74868 8.98725 3.66699 8.74107 3.66699 8.50024C3.66699 8.2692 3.74001 8.01852 3.9054 7.82079L7.22452 3.74163Z" fill="#6A6A6A"/>
<path d="M1.41753 0.5C2.01666 0.5 2.33505 1.05252 2.33505 1.51266V15.4873C2.33505 15.9475 2.01666 16.5 1.41753 16.5C0.818394 16.5 0.5 15.9475 0.5 15.4873V1.51266C0.5 1.05252 0.818394 0.5 1.41753 0.5Z" fill="#6A6A6A"/>
</svg>
