<svg width="16" height="16" viewBox="0 0 16 16" fill="none" xmlns="http://www.w3.org/2000/svg">
<path d="M6.72452 3.24163C6.89169 3.03637 7.13588 2.90625 7.40771 2.90625C7.67955 2.90625 7.92359 3.03619 8.09076 3.24145C8.40443 3.62658 8.40443 4.21313 8.09076 4.59826L6.14483 6.98758H15.0825C15.6816 6.98758 16 7.5401 16 8.00024C16 8.46037 15.6816 9.0129 15.0825 9.0129H6.14483L8.09076 11.4022C8.40443 11.7873 8.40443 12.3739 8.09076 12.759C7.92882 12.9579 7.68482 13.0952 7.40926 13.0952C7.13875 13.0952 6.89382 12.9684 6.72539 12.7561L3.40301 8.67674C3.24868 8.48725 3.16699 8.24107 3.16699 8.00024C3.16699 7.7692 3.24001 7.51852 3.4054 7.32079L6.72452 3.24163Z" fill="white"/>
<path d="M0.917529 0C1.51666 0 1.83505 0.55252 1.83505 1.01266V14.9873C1.83505 15.4475 1.51666 16 0.917529 16C0.318394 16 0 15.4475 0 14.9873V1.01266C0 0.55252 0.318394 0 0.917529 0Z" fill="white"/>
</svg>
