<svg width="16" height="16" viewBox="0 0 16 16" fill="none" xmlns="http://www.w3.org/2000/svg">
<path d="M9.27546 3.24163C9.10829 3.03637 8.8641 2.90625 8.59227 2.90625C8.32043 2.90625 8.07639 3.03619 7.90922 3.24145C7.59555 3.62658 7.59555 4.21313 7.90922 4.59826L9.8552 6.98758H0.91753C0.318394 6.98758 0 7.5401 0 8.00024C0 8.46037 0.318393 9.0129 0.91753 9.0129H9.8552L7.90922 11.4022C7.59555 11.7873 7.59555 12.3739 7.90922 12.759C8.07116 12.9579 8.31516 13.0952 8.59072 13.0952C8.86123 13.0952 9.10616 12.9684 9.27459 12.7561L12.597 8.67674C12.7513 8.48725 12.833 8.24107 12.833 8.00024C12.833 7.7692 12.76 7.51852 12.5946 7.32079L9.27546 3.24163Z" fill="white"/>
<path d="M15.0825 0C14.4834 0 14.165 0.55252 14.165 1.01266V14.9873C14.165 15.4475 14.4834 16 15.0825 16C15.6817 16 16.0001 15.4475 16.0001 14.9873V1.01266C16.0001 0.55252 15.6817 0 15.0825 0Z" fill="white"/>
</svg>
