<svg width="12" height="11" viewBox="0 0 12 11" fill="none" xmlns="http://www.w3.org/2000/svg">
<path d="M8.70775 0.378908C8.55993 0.166428 8.32031 0 8.02261 0C7.72491 0 7.48542 0.166249 7.33759 0.378729C7.1926 0.58715 7.13376 0.83436 7.13376 1.05894C7.13376 1.28352 7.1926 1.53073 7.33759 1.73915L9.21765 4.44157H0.88813C0.57283 4.44157 0.33813 4.62417 0.202761 4.81875C0.066858 5.0141 0 5.25643 0 5.49948C0 5.74254 0.066858 5.98486 0.202761 6.18021C0.338129 6.37479 0.57283 6.55739 0.88813 6.55739H9.21765L7.33759 9.25981C7.1926 9.46824 7.13376 9.7154 7.13376 9.94C7.13376 10.1646 7.1926 10.4118 7.33759 10.6202C7.48011 10.8251 7.71938 11 8.02117 11C8.31796 11 8.55791 10.837 8.70682 10.6173L11.7954 6.17763C11.9325 5.98066 12 5.73353 12 5.49948C12 5.27466 11.9399 5.02328 11.7933 4.81832L8.70775 0.378908Z" fill="#6A6A6A"/>
</svg>
