<svg width="24" height="24" viewBox="0 0 24 24" fill="none" xmlns="http://www.w3.org/2000/svg">
<path d="M6 13V11.5823C6 10.5552 5.66688 9.55584 5.05063 8.73418V8.73418C4.20573 7.60763 5.00954 6 6.41772 6H17.5823C18.9905 6 19.7943 7.60763 18.9494 8.73418V8.73418C18.3331 9.55584 18 10.5552 18 11.5823V18C18 20.2091 16.2091 22 14 22H10C7.79086 22 6 20.2091 6 18V17" stroke="url(#paint0_linear_1528_646)" stroke-width="1.5" stroke-linecap="round"/>
<path d="M14 17L14 11" stroke="url(#paint1_linear_1528_646)" stroke-width="1.5" stroke-linecap="round" stroke-linejoin="round"/>
<path d="M10 17L10 11" stroke="url(#paint2_linear_1528_646)" stroke-width="1.5" stroke-linecap="round" stroke-linejoin="round"/>
<path d="M14.6368 3.31557C14.3223 3.11415 13.9504 3 13.5585 3H10.4416C10.0497 3 9.67783 3.11415 9.36328 3.31557" stroke="url(#paint3_linear_1528_646)" stroke-width="1.5" stroke-linecap="round"/>
<defs>
<linearGradient id="paint0_linear_1528_646" x1="3" y1="6.85294" x2="23.8539" y2="21.4261" gradientUnits="userSpaceOnUse">
<stop stop-color="#FF00E5"/>
<stop offset="1" stop-color="#7000FF"/>
</linearGradient>
<linearGradient id="paint1_linear_1528_646" x1="13.9467" y1="11" x2="11.3572" y2="11.6948" gradientUnits="userSpaceOnUse">
<stop stop-color="#FF00E5"/>
<stop offset="1" stop-color="#7000FF"/>
</linearGradient>
<linearGradient id="paint2_linear_1528_646" x1="9.94669" y1="11" x2="7.35719" y2="11.6948" gradientUnits="userSpaceOnUse">
<stop stop-color="#FF00E5"/>
<stop offset="1" stop-color="#7000FF"/>
</linearGradient>
<linearGradient id="paint3_linear_1528_646" x1="9.36328" y1="3.01682" x2="9.44689" y2="3.88476" gradientUnits="userSpaceOnUse">
<stop stop-color="#FF00E5"/>
<stop offset="1" stop-color="#7000FF"/>
</linearGradient>
</defs>
</svg>
