<svg width="12" height="11" viewBox="0 0 12 11" fill="none" xmlns="http://www.w3.org/2000/svg">
<path d="M3.29225 0.378908C3.44007 0.166428 3.67969 0 3.97739 0C4.27509 0 4.51458 0.166249 4.66241 0.378729C4.8074 0.58715 4.86624 0.83436 4.86624 1.05894C4.86624 1.28352 4.8074 1.53073 4.66241 1.73915L2.78235 4.44157H11.1119C11.4272 4.44157 11.6619 4.62417 11.7972 4.81875C11.9331 5.0141 12 5.25643 12 5.49948C12 5.74254 11.9331 5.98486 11.7972 6.18021C11.6619 6.37479 11.4272 6.55739 11.1119 6.55739H2.78235L4.66241 9.25981C4.8074 9.46824 4.86624 9.7154 4.86624 9.94C4.86624 10.1646 4.8074 10.4118 4.66241 10.6202C4.51989 10.8251 4.28062 11 3.97883 11C3.68204 11 3.44209 10.837 3.29318 10.6173L0.204558 6.17763C0.067528 5.98066 0 5.73353 0 5.49948C0 5.27466 0.060135 5.02328 0.206653 4.81832L3.29225 0.378908Z" fill="white"/>
</svg>
