<svg width="21" height="21" viewBox="0 0 21 21" fill="none" xmlns="http://www.w3.org/2000/svg">
<path d="M1 9.43841C1 8.21422 1.56058 7.05744 2.52142 6.29888L8.02142 1.95677C9.47466 0.809478 11.5253 0.809479 12.9786 1.95677L18.4786 6.29888C19.4394 7.05744 20 8.21422 20 9.43841V16C20 18.2091 18.2091 20 16 20H14.5C13.9477 20 13.5 19.5523 13.5 19V16C13.5 14.8954 12.6046 14 11.5 14H9.5C8.39543 14 7.5 14.8954 7.5 16V19C7.5 19.5523 7.05228 20 6.5 20H5C2.79086 20 1 18.2091 1 16L1 9.43841Z" fill="url(#paint0_linear_338_505)" stroke="url(#paint1_linear_338_505)" stroke-width="1.5"/>
<defs>
<linearGradient id="paint0_linear_338_505" x1="1" y1="1.06618" x2="25.3001" y2="15.406" gradientUnits="userSpaceOnUse">
<stop stop-color="#FF00E5"/>
<stop offset="1" stop-color="#7000FF"/>
</linearGradient>
<linearGradient id="paint1_linear_338_505" x1="1" y1="1.06618" x2="25.3001" y2="15.406" gradientUnits="userSpaceOnUse">
<stop stop-color="#FF00E5"/>
<stop offset="1" stop-color="#7000FF"/>
</linearGradient>
</defs>
</svg>
