<svg width="60" height="60" viewBox="0 0 60 60" fill="none" xmlns="http://www.w3.org/2000/svg">
<path fill-rule="evenodd" clip-rule="evenodd" d="M0 30C0 13.4315 13.4315 0 30 0C46.5685 0 60 13.4315 60 30C60 46.5685 46.5685 60 30 60C13.4315 60 0 46.5685 0 30ZM33.4884 27.2093C33.4884 26.0534 32.5513 25.1163 31.3953 25.1163H25.814C24.658 25.1163 23.7209 26.0534 23.7209 27.2093C23.7209 28.3652 24.658 29.3023 25.814 29.3023H29.3023V43.9535C29.3023 45.1094 30.2394 46.0465 31.3953 46.0465C32.5513 46.0465 33.4884 45.1094 33.4884 43.9535V27.2093ZM33.4884 16.0465C33.4884 14.8906 32.5513 13.9535 31.3953 13.9535C30.2394 13.9535 29.3023 14.8906 29.3023 16.0465V18.8372C29.3023 19.9932 30.2394 20.9302 31.3953 20.9302C32.5513 20.9302 33.4884 19.9932 33.4884 18.8372V16.0465Z" fill="white"/>
</svg>
