<svg width="17" height="17" viewBox="0 0 17 17" fill="none" xmlns="http://www.w3.org/2000/svg">
<path d="M9.77546 3.74163L9.77532 3.74145C9.60815 3.53619 9.3641 3.40625 9.09227 3.40625C8.82043 3.40625 8.57639 3.53619 8.40922 3.74145C8.09555 4.12658 8.09555 4.71313 8.40922 5.09826L10.3552 7.48758H1.41753C0.818394 7.48758 0.5 8.0401 0.5 8.50024C0.5 8.96037 0.818393 9.5129 1.41753 9.5129H10.3552L8.40922 11.9022C8.09555 12.2873 8.09555 12.8739 8.40922 13.259C8.57116 13.4579 8.81516 13.5952 9.09072 13.5952C9.36123 13.5952 9.60616 13.4684 9.77459 13.2561L13.097 9.17674C13.2513 8.98725 13.333 8.74107 13.333 8.50024C13.333 8.2692 13.26 8.01852 13.0946 7.82079L9.77546 3.74163Z" fill="#6A6A6A" stroke="#6A6A6A"/>
<path d="M15.5824 0.5C14.9833 0.5 14.6649 1.05252 14.6649 1.51266V15.4873C14.6649 15.9475 14.9833 16.5 15.5824 16.5C16.1816 16.5 16.5 15.9475 16.5 15.4873V1.51266C16.5 1.05252 16.1816 0.5 15.5824 0.5Z" fill="#6A6A6A" stroke="#6A6A6A"/>
</svg>
