<svg width="198" height="38" viewBox="0 0 198 38" fill="none" xmlns="http://www.w3.org/2000/svg">
<path d="M38 19C38 29.4934 29.4934 38 19 38C8.50659 38 0 29.4934 0 19C0 8.50659 8.50659 0 19 0C29.4934 0 38 8.50659 38 19Z" fill="#522567"/>
<path d="M21.5969 21.6888C21.5969 18.9097 23.2808 16.5248 25.6814 15.5038C27.0464 14.9232 28.2953 13.7674 28.2953 12.2801C28.2953 10.7927 27.0934 9.58691 25.6107 9.58691H12.2723C10.7896 9.58691 9.58765 10.7927 9.58765 12.2801C9.58765 13.7674 10.8372 14.9229 12.2006 15.5075C14.5747 16.5255 16.2382 18.8884 16.2382 21.6409V25.6068C16.2382 27.0912 17.4378 28.2946 18.9176 28.2946C20.3973 28.2946 21.5969 27.0912 21.5969 25.6068V21.6888Z" fill="white"/>
<path d="M9.58765 22.2839C9.58765 18.964 12.9311 16.3173 14.3401 19.314C14.6665 20.0082 14.8492 20.7851 14.8492 21.6052V25.6273C14.8492 27.1007 13.6713 28.2951 12.2184 28.2951C10.7655 28.2951 9.58765 27.1007 9.58765 25.6273V22.2839Z" fill="white"/>
<path d="M23.0338 21.6052C23.0338 20.7851 23.2165 20.0082 23.5429 19.314C24.9519 16.3173 28.2954 18.964 28.2954 22.2839V25.6273C28.2954 27.1007 27.1175 28.2951 25.6646 28.2951C24.2116 28.2951 23.0338 27.1007 23.0338 25.6273V21.6052Z" fill="white"/>
<path d="M43.5699 16.4931H54.4379V18.2411H49.9729V27.0001H48.0349V18.2411H43.5699V16.4931ZM56.0118 16.4931H62.1868C63.4154 16.4931 64.4351 16.8731 65.2458 17.6331C66.0565 18.3804 66.4618 19.3558 66.4618 20.5591C66.4618 21.3698 66.2655 22.0854 65.8728 22.7061C65.4801 23.3141 64.9481 23.7764 64.2768 24.0931L65.9298 27.0001H63.8208L62.4908 24.5681H57.9498V27.0001H56.0118V16.4931ZM57.9498 18.2601V22.8011H62.1108C62.8454 22.8011 63.4344 22.6048 63.8778 22.2121C64.3211 21.8068 64.5428 21.2558 64.5428 20.5591C64.5428 19.8498 64.3211 19.2924 63.8778 18.8871C63.4344 18.4691 62.8454 18.2601 62.1108 18.2601H57.9498ZM73.5054 18.2221L71.2444 23.6371H76.9064L74.7024 18.2221H73.5054ZM72.3274 16.4931H75.9754L80.4404 27.0001H78.4074L77.6854 25.3471H70.5224L69.8004 27.0001H67.7294L72.3274 16.4931ZM82.0811 16.4931H87.3821C88.9275 16.4931 90.2575 16.9808 91.3721 17.9561C92.4868 18.9188 93.0441 20.1791 93.0441 21.7371C93.0441 23.2951 92.4805 24.5618 91.3531 25.5371C90.2385 26.5124 88.9148 27.0001 87.3821 27.0001H82.0811V16.4931ZM84.0191 18.2411V25.2331H87.3441C88.4715 25.2331 89.3771 24.9101 90.0611 24.2641C90.7578 23.6181 91.1061 22.7758 91.1061 21.7371C91.1061 20.6984 90.7578 19.8561 90.0611 19.2101C89.3771 18.5641 88.4715 18.2411 87.3441 18.2411H84.0191ZM94.8096 16.4931H104.215V18.2411H96.7477V20.7681H103.474V22.4971H96.7477V25.2331H104.5V27.0001H94.8096V16.4931ZM106.369 16.4931H109.181L113.285 24.7581H113.38L117.503 16.4931H120.239V27.0001H118.32V18.8871H118.13L114.14 27.0001H112.411L108.44 18.8871H108.231V27.0001H106.369V16.4931ZM127.648 18.2221L125.387 23.6371H131.049L128.845 18.2221H127.648ZM126.47 16.4931H130.118L134.583 27.0001H132.55L131.828 25.3471H124.665L123.943 27.0001H121.872L126.47 16.4931ZM136.224 16.4931H138.162L145.135 24.3021V16.4931H147.054V27.0001H145.097L138.124 19.1531V27.0001H136.224V16.4931ZM154.46 18.2221L152.199 23.6371H157.861L155.657 18.2221H154.46ZM153.282 16.4931H156.93L161.395 27.0001H159.362L158.64 25.3471H151.477L150.755 27.0001H148.684L153.282 16.4931ZM168.844 21.0341H173.48V27.0001H172.245L171.96 26.0311C170.896 26.8544 169.598 27.2661 168.065 27.2661C166.355 27.2661 164.949 26.7658 163.847 25.7651C162.758 24.7644 162.213 23.4281 162.213 21.7561C162.213 20.0841 162.764 18.7478 163.866 17.7471C164.968 16.7464 166.368 16.2461 168.065 16.2461C170.345 16.2461 172.068 17.0884 173.233 18.7731L171.713 19.6471C171.27 19.0771 170.757 18.6654 170.174 18.4121C169.604 18.1461 168.882 18.0131 168.008 18.0131C166.83 18.0131 165.886 18.3488 165.177 19.0201C164.48 19.6914 164.132 20.6034 164.132 21.7561C164.132 22.8834 164.487 23.7891 165.196 24.4731C165.918 25.1571 166.855 25.4991 168.008 25.4991C169.541 25.4991 170.744 25.0874 171.618 24.2641V22.7251L168.844 22.6111V21.0341ZM175.56 16.4931H184.965V18.2411H177.498V20.7681H184.224V22.4971H177.498V25.2331H185.25V27.0001H175.56V16.4931ZM187.119 16.4931H193.294C194.523 16.4931 195.543 16.8731 196.353 17.6331C197.164 18.3804 197.569 19.3558 197.569 20.5591C197.569 21.3698 197.373 22.0854 196.98 22.7061C196.588 23.3141 196.056 23.7764 195.384 24.0931L197.037 27.0001H194.928L193.598 24.5681H189.057V27.0001H187.119V16.4931ZM189.057 18.2601V22.8011H193.218C193.953 22.8011 194.542 22.6048 194.985 22.2121C195.429 21.8068 195.65 21.2558 195.65 20.5591C195.65 19.8498 195.429 19.2924 194.985 18.8871C194.542 18.4691 193.953 18.2601 193.218 18.2601H189.057Z" fill="white"/>
</svg>
