<svg width="38" height="38" viewBox="0 0 38 38" fill="none" xmlns="http://www.w3.org/2000/svg">
<path d="M38 19C38 29.4934 29.4934 38 19 38C8.50659 38 0 29.4934 0 19C0 8.50659 8.50659 5.81145e-07 19 5.81145e-07C29.4934 5.81145e-07 38 8.50659 38 19Z" fill="#522567"/>
<path d="M21.5969 21.6891C21.5969 18.91 23.2808 16.5251 25.6814 15.5041C27.0464 14.9235 28.2953 13.7677 28.2953 12.2804C28.2953 10.793 27.0934 9.58723 25.6107 9.58723H12.2723C10.7896 9.58723 9.58765 10.793 9.58765 12.2804C9.58765 13.7677 10.8372 14.9232 12.2006 15.5078C14.5747 16.5258 16.2382 18.8887 16.2382 21.6412V25.6071C16.2382 27.0915 17.4378 28.2949 18.9176 28.2949C20.3973 28.2949 21.5969 27.0915 21.5969 25.6071V21.6891Z" fill="white"/>
<path d="M9.58765 22.2837C9.58765 18.9638 12.9311 16.3171 14.3401 19.3138C14.6665 20.008 14.8492 20.7849 14.8492 21.605V25.6271C14.8492 27.1005 13.6713 28.2949 12.2184 28.2949C10.7655 28.2949 9.58765 27.1005 9.58765 25.6271V22.2837Z" fill="white"/>
<path d="M23.0338 21.605C23.0338 20.7849 23.2165 20.008 23.5429 19.3138C24.9519 16.3171 28.2954 18.9638 28.2954 22.2837V25.6271C28.2954 27.1005 27.1175 28.2949 25.6646 28.2949C24.2116 28.2949 23.0338 27.1005 23.0338 25.6271V21.605Z" fill="white"/>
</svg>
