<svg width="155" height="12" viewBox="0 0 155 12" fill="none" xmlns="http://www.w3.org/2000/svg">
<path d="M0.57 0.492999H11.438V2.241H6.973V11H5.035V2.241H0.57V0.492999ZM13.0119 0.492999H19.1869C20.4155 0.492999 21.4352 0.872999 22.2459 1.633C23.0566 2.38033 23.4619 3.35567 23.4619 4.559C23.4619 5.36967 23.2656 6.08533 22.8729 6.706C22.4802 7.314 21.9482 7.77633 21.2769 8.093L22.9299 11H20.8209L19.4909 8.568H14.9499V11H13.0119V0.492999ZM14.9499 2.26V6.801H19.1109C19.8455 6.801 20.4345 6.60467 20.8779 6.212C21.3212 5.80667 21.5429 5.25567 21.5429 4.559C21.5429 3.84967 21.3212 3.29233 20.8779 2.887C20.4345 2.469 19.8455 2.26 19.1109 2.26H14.9499ZM30.5055 2.222L28.2445 7.637H33.9065L31.7025 2.222H30.5055ZM29.3275 0.492999H32.9755L37.4405 11H35.4075L34.6855 9.347H27.5225L26.8005 11H24.7295L29.3275 0.492999ZM39.0812 0.492999H44.3822C45.9276 0.492999 47.2576 0.980666 48.3722 1.956C49.4869 2.91867 50.0442 4.179 50.0442 5.737C50.0442 7.295 49.4806 8.56167 48.3532 9.537C47.2386 10.5123 45.9149 11 44.3822 11H39.0812V0.492999ZM41.0192 2.241V9.233H44.3442C45.4716 9.233 46.3772 8.91 47.0612 8.264C47.7579 7.618 48.1062 6.77567 48.1062 5.737C48.1062 4.69833 47.7579 3.856 47.0612 3.21C46.3772 2.564 45.4716 2.241 44.3442 2.241H41.0192ZM51.8097 0.492999H61.2147V2.241H53.7477V4.768H60.4737V6.497H53.7477V9.233H61.4997V11H51.8097V0.492999ZM63.3693 0.492999H66.1813L70.2853 8.758H70.3803L74.5033 0.492999H77.2393V11H75.3203V2.887H75.1303L71.1403 11H69.4113L65.4403 2.887H65.2313V11H63.3693V0.492999ZM84.6481 2.222L82.3871 7.637H88.0491L85.8451 2.222H84.6481ZM83.4701 0.492999H87.1181L91.5831 11H89.5501L88.8281 9.347H81.6651L80.9431 11H78.8721L83.4701 0.492999ZM93.2238 0.492999H95.1618L102.135 8.302V0.492999H104.054V11H102.097L95.1238 3.153V11H93.2238V0.492999ZM111.46 2.222L109.199 7.637H114.861L112.657 2.222H111.46ZM110.282 0.492999H113.93L118.395 11H116.362L115.64 9.347H108.477L107.755 11H105.684L110.282 0.492999ZM125.844 5.034H130.48V11H129.245L128.96 10.031C127.896 10.8543 126.598 11.266 125.065 11.266C123.355 11.266 121.949 10.7657 120.847 9.765C119.758 8.76433 119.213 7.428 119.213 5.756C119.213 4.084 119.764 2.74767 120.866 1.747C121.968 0.746333 123.368 0.245999 125.065 0.245999C127.345 0.245999 129.068 1.08833 130.233 2.773L128.713 3.647C128.27 3.077 127.757 2.66533 127.174 2.412C126.604 2.146 125.882 2.013 125.008 2.013C123.83 2.013 122.886 2.34867 122.177 3.02C121.48 3.69133 121.132 4.60333 121.132 5.756C121.132 6.88333 121.487 7.789 122.196 8.473C122.918 9.157 123.855 9.499 125.008 9.499C126.541 9.499 127.744 9.08733 128.618 8.264V6.725L125.844 6.611V5.034ZM132.56 0.492999H141.965V2.241H134.498V4.768H141.224V6.497H134.498V9.233H142.25V11H132.56V0.492999ZM144.119 0.492999H150.294C151.523 0.492999 152.543 0.872999 153.353 1.633C154.164 2.38033 154.569 3.35567 154.569 4.559C154.569 5.36967 154.373 6.08533 153.98 6.706C153.588 7.314 153.056 7.77633 152.384 8.093L154.037 11H151.928L150.598 8.568H146.057V11H144.119V0.492999ZM146.057 2.26V6.801H150.218C150.953 6.801 151.542 6.60467 151.985 6.212C152.429 5.80667 152.65 5.25567 152.65 4.559C152.65 3.84967 152.429 3.29233 151.985 2.887C151.542 2.469 150.953 2.26 150.218 2.26H146.057Z" fill="white"/>
</svg>
