<svg width="22" height="21" viewBox="0 0 22 21" fill="none" xmlns="http://www.w3.org/2000/svg">
<path fill-rule="evenodd" clip-rule="evenodd" d="M5.75 0C2.57436 0 0 2.57436 0 5.75V18.6694C0 20.1368 1.69738 20.9526 2.84322 20.0359L5.67069 17.7739C5.89233 17.5966 6.16772 17.5 6.45156 17.5H15.75C18.9256 17.5 21.5 14.9256 21.5 11.75V5.75C21.5 2.57436 18.9256 0 15.75 0H5.75ZM5.7998 10.0498C6.49016 10.0498 7.0498 9.49016 7.0498 8.7998C7.0498 8.10945 6.49016 7.5498 5.7998 7.5498C5.10945 7.5498 4.5498 8.10945 4.5498 8.7998C4.5498 9.49016 5.10945 10.0498 5.7998 10.0498ZM12.0498 8.7998C12.0498 9.49016 11.4902 10.0498 10.7998 10.0498C10.1094 10.0498 9.5498 9.49016 9.5498 8.7998C9.5498 8.10945 10.1094 7.5498 10.7998 7.5498C11.4902 7.5498 12.0498 8.10945 12.0498 8.7998ZM15.7998 10.0498C16.4902 10.0498 17.0498 9.49016 17.0498 8.7998C17.0498 8.10945 16.4902 7.5498 15.7998 7.5498C15.1094 7.5498 14.5498 8.10945 14.5498 8.7998C14.5498 9.49016 15.1094 10.0498 15.7998 10.0498Z" fill="#5D4468"/>
</svg>
