<svg width="19" height="19" viewBox="0 0 19 19" fill="none" xmlns="http://www.w3.org/2000/svg">
<path d="M0 8.43841C0 7.21422 0.56058 6.05744 1.52142 5.29888L7.02142 0.95677C8.47466 -0.190522 10.5253 -0.190521 11.9786 0.956771L17.4786 5.29888C18.4394 6.05744 19 7.21422 19 8.43841V15C19 17.2091 17.2091 19 15 19H13.5C12.9477 19 12.5 18.5523 12.5 18V15C12.5 13.8954 11.6046 13 10.5 13H8.5C7.39543 13 6.5 13.8954 6.5 15V18C6.5 18.5523 6.05228 19 5.5 19H4C1.79086 19 0 17.2091 0 15L0 8.43841Z" fill="#5D4468"/>
</svg>
