<svg width="13" height="12" viewBox="0 0 13 12" fill="none" xmlns="http://www.w3.org/2000/svg">
<path d="M9.20775 0.878908L9.20762 0.878729C9.0598 0.666249 8.82031 0.5 8.52261 0.5C8.22491 0.5 7.98542 0.666249 7.83759 0.878729C7.6926 1.08715 7.63376 1.33436 7.63376 1.55894C7.63376 1.78352 7.6926 2.03073 7.83759 2.23915L9.71765 4.94157H1.38813C1.07283 4.94157 0.83813 5.12417 0.702761 5.31875C0.566858 5.5141 0.5 5.75643 0.5 5.99948C0.5 6.24254 0.566858 6.48486 0.702761 6.68021C0.83813 6.87479 1.07283 7.05739 1.38813 7.05739H9.71765L7.83759 9.75981C7.6926 9.96824 7.63376 10.2154 7.63376 10.44C7.63376 10.6646 7.6926 10.9118 7.83759 11.1202C7.98011 11.3251 8.21938 11.5 8.52117 11.5C8.81796 11.5 9.05791 11.337 9.20682 11.1173L12.2954 6.67763C12.4325 6.48066 12.5 6.23353 12.5 5.99948C12.5 5.77466 12.4399 5.52328 12.2933 5.31832L9.20775 0.878908Z" fill="white" stroke="white"/>
</svg>
