<svg width="22" height="22" viewBox="0 0 22 22" fill="none" xmlns="http://www.w3.org/2000/svg">
<rect width="22" height="22" rx="6" fill="#0C0C0C"/>
<path d="M6.30114 11.267V12.2045H2.6875V11.267H6.30114ZM2.92614 8.45455V15H1.92045V8.45455H2.92614ZM7.06818 8.45455V15H6.0625V8.45455H7.06818ZM11.6491 15.1364C11.0185 15.1364 10.4744 14.9972 10.017 14.7188C9.5625 14.4375 9.21165 14.0455 8.96449 13.5426C8.72017 13.0369 8.59801 12.4489 8.59801 11.7784C8.59801 11.108 8.72017 10.517 8.96449 10.0057C9.21165 9.49148 9.5554 9.09091 9.99574 8.80398C10.4389 8.5142 10.956 8.36932 11.5469 8.36932C11.8878 8.36932 12.2244 8.42614 12.5568 8.53977C12.8892 8.65341 13.1918 8.83807 13.4645 9.09375C13.7372 9.34659 13.9545 9.68182 14.1165 10.0994C14.2784 10.517 14.3594 11.0312 14.3594 11.642V12.0682H9.31392V11.1989H13.3366C13.3366 10.8295 13.2628 10.5 13.1151 10.2102C12.9702 9.92045 12.7628 9.69176 12.4929 9.52415C12.2259 9.35653 11.9105 9.27273 11.5469 9.27273C11.1463 9.27273 10.7997 9.37216 10.5071 9.57102C10.2173 9.76705 9.99432 10.0227 9.83807 10.3381C9.68182 10.6534 9.60369 10.9915 9.60369 11.3523V11.9318C9.60369 12.4261 9.68892 12.8452 9.85938 13.1889C10.0327 13.5298 10.2727 13.7898 10.5795 13.9688C10.8864 14.1449 11.2429 14.233 11.6491 14.233C11.9134 14.233 12.152 14.196 12.3651 14.1222C12.581 14.0455 12.767 13.9318 12.9233 13.7812C13.0795 13.6278 13.2003 13.4375 13.2855 13.2102L14.2571 13.483C14.1548 13.8125 13.983 14.1023 13.7415 14.3523C13.5 14.5994 13.2017 14.7926 12.8466 14.9318C12.4915 15.0682 12.0923 15.1364 11.6491 15.1364ZM15.2798 9.39205V8.45455H20.598V9.39205H18.4503V15H17.4446V9.39205H15.2798Z" fill="white"/>
</svg>
