<svg width="22" height="22" viewBox="0 0 22 22" fill="none" xmlns="http://www.w3.org/2000/svg">
<rect width="22" height="22" rx="6" fill="url(#paint0_linear_961_609)"/>
<path d="M7.57955 15.1364C6.98864 15.1364 6.47017 14.9957 6.02415 14.7145C5.58097 14.4332 5.23438 14.0398 4.98438 13.5341C4.73722 13.0284 4.61364 12.4375 4.61364 11.7614C4.61364 11.0795 4.73722 10.4844 4.98438 9.97585C5.23438 9.46733 5.58097 9.07244 6.02415 8.79119C6.47017 8.50994 6.98864 8.36932 7.57955 8.36932C8.17045 8.36932 8.6875 8.50994 9.13068 8.79119C9.5767 9.07244 9.9233 9.46733 10.1705 9.97585C10.4205 10.4844 10.5455 11.0795 10.5455 11.7614C10.5455 12.4375 10.4205 13.0284 10.1705 13.5341C9.9233 14.0398 9.5767 14.4332 9.13068 14.7145C8.6875 14.9957 8.17045 15.1364 7.57955 15.1364ZM7.57955 14.233C8.02841 14.233 8.39773 14.1179 8.6875 13.8878C8.97727 13.6577 9.19176 13.3551 9.33097 12.9801C9.47017 12.6051 9.53977 12.1989 9.53977 11.7614C9.53977 11.3239 9.47017 10.9162 9.33097 10.5384C9.19176 10.1605 8.97727 9.85511 8.6875 9.62216C8.39773 9.3892 8.02841 9.27273 7.57955 9.27273C7.13068 9.27273 6.76136 9.3892 6.47159 9.62216C6.18182 9.85511 5.96733 10.1605 5.82812 10.5384C5.68892 10.9162 5.61932 11.3239 5.61932 11.7614C5.61932 12.1989 5.68892 12.6051 5.82812 12.9801C5.96733 13.3551 6.18182 13.6577 6.47159 13.8878C6.76136 14.1179 7.13068 14.233 7.57955 14.233ZM13.0181 12.6136L13.0011 11.3693H13.2056L16.0692 8.45455H17.3136L14.2624 11.5398H14.1772L13.0181 12.6136ZM12.0806 15V6.27273H13.0863V15H12.0806ZM16.2397 15L13.6829 11.7614L14.3988 11.0625L17.5181 15H16.2397Z" fill="white"/>
<defs>
<linearGradient id="paint0_linear_961_609" x1="4.75666e-07" y1="1.17279" x2="27.3731" y2="18.1763" gradientUnits="userSpaceOnUse">
<stop stop-color="#FF00E5"/>
<stop offset="1" stop-color="#7000FF"/>
</linearGradient>
</defs>
</svg>
