<svg width="19" height="14" viewBox="0 0 19 14" fill="none" xmlns="http://www.w3.org/2000/svg">
<path d="M9.5 3.11111C9.09641 3.11111 8.76923 3.45933 8.76923 3.88889C8.76923 4.31844 9.09641 4.66667 9.5 4.66667C10.7108 4.66667 11.6923 5.71134 11.6923 7C11.6923 8.28866 10.7108 9.33333 9.5 9.33333C8.28922 9.33333 7.30769 8.28866 7.30769 7C7.30769 6.57044 6.98052 6.22222 6.57692 6.22222C6.17333 6.22222 5.84615 6.57044 5.84615 7C5.84615 9.14777 7.48204 10.8889 9.5 10.8889C11.518 10.8889 13.1538 9.14777 13.1538 7C13.1538 4.85223 11.518 3.11111 9.5 3.11111Z" fill="white"/>
<path fill-rule="evenodd" clip-rule="evenodd" d="M9.49997 0C5.52346 0 2.06415 2.35082 0.285056 5.81319C-0.0950126 6.55285 -0.0950191 7.44699 0.285039 8.18666C2.06411 11.6491 5.52347 14 9.50003 14C13.4765 14 16.9358 11.6492 18.7149 8.18682C19.095 7.44715 19.095 6.55302 18.715 5.81334C16.9359 2.3509 13.4765 0 9.49997 0ZM1.56736 6.55958C3.09996 3.57694 6.07795 1.55556 9.49997 1.55556C12.922 1.55556 15.9001 3.577 17.4326 6.55971C17.5737 6.8343 17.5737 7.16584 17.4326 7.44042C15.9 10.4231 12.9221 12.4444 9.50003 12.4444C6.07796 12.4444 3.09993 10.423 1.56735 7.44029C1.42626 7.1657 1.42627 6.83416 1.56736 6.55958Z" fill="white"/>
</svg>
