<svg width="11" height="10" viewBox="0 0 11 10" fill="none" xmlns="http://www.w3.org/2000/svg">
<path d="M4.23077 5.02162C4.23077 4.2685 4.79902 3.65798 5.5 3.65798C5.73366 3.65798 5.92308 3.45447 5.92308 3.20343C5.92308 2.9524 5.73366 2.74889 5.5 2.74889C4.33171 2.74889 3.38462 3.76642 3.38462 5.02162C3.38462 5.27265 3.57403 5.47616 3.80769 5.47616C4.04135 5.47616 4.23077 5.27265 4.23077 5.02162Z" fill="#776284"/>
<path fill-rule="evenodd" clip-rule="evenodd" d="M0.950028 9.86687C1.11525 10.0444 1.38313 10.0444 1.54835 9.86687L10.0099 0.775958C10.1751 0.598447 10.1751 0.310644 10.0099 0.133133C9.84466 -0.0443778 9.57679 -0.0443777 9.41156 0.133133L8.09124 1.55166C7.76827 1.38806 7.42965 1.25406 7.07842 1.15295C6.57462 1.00791 6.04538 0.930707 5.49998 0.930707C3.19779 0.930707 1.19504 2.30456 0.165033 4.32802C-0.0550073 4.7603 -0.055011 5.28284 0.165022 5.71512C0.514474 6.40165 0.975579 7.013 1.52204 7.52127C1.70394 7.69046 1.89533 7.84826 2.09526 7.99363L0.950028 9.22404C0.784806 9.40155 0.784806 9.68936 0.950028 9.86687ZM6.85943 2.03106C7.06089 2.08906 7.25757 2.15965 7.44868 2.24202L2.72186 7.32042L2.06027 6.81939C1.59626 6.38437 1.20471 5.86298 0.907414 5.27893C0.825732 5.11846 0.825734 4.9247 0.907418 4.76423C1.79471 3.02112 3.51881 1.8398 5.49998 1.8398C5.97078 1.8398 6.42641 1.90641 6.85943 2.03106Z" fill="#776284"/>
<path d="M9.1458 2.79281C9.30892 2.61307 9.57678 2.60943 9.74407 2.78469C10.1751 3.23618 10.5438 3.75603 10.835 4.32811C11.055 4.76039 11.055 5.28294 10.835 5.71521C9.80496 7.73867 7.80221 9.11252 5.50002 9.11252C4.97735 9.11252 4.46951 9.04162 3.98466 8.90805C3.75833 8.8457 3.62189 8.59803 3.67992 8.35486C3.73796 8.11168 3.96849 7.9651 4.19482 8.02745C4.61157 8.14226 5.04883 8.20343 5.50002 8.20343C7.48119 8.20343 9.20529 7.02211 10.0926 5.27901C10.1743 5.11854 10.1743 4.92478 10.0926 4.76431C9.8421 4.2722 9.52469 3.82457 9.15336 3.43558C8.98606 3.26033 8.98268 2.97255 9.1458 2.79281Z" fill="#776284"/>
</svg>
