<svg width="13" height="8" viewBox="0 0 13 8" fill="none" xmlns="http://www.w3.org/2000/svg">
<path d="M6.5 1.77778C6.22386 1.77778 6 1.97676 6 2.22222C6 2.46768 6.22386 2.66667 6.5 2.66667C7.32843 2.66667 8 3.26362 8 4C8 4.73638 7.32843 5.33333 6.5 5.33333C5.67157 5.33333 5 4.73638 5 4C5 3.75454 4.77614 3.55556 4.5 3.55556C4.22386 3.55556 4 3.75454 4 4C4 5.2273 5.11929 6.22222 6.5 6.22222C7.88071 6.22222 9 5.2273 9 4C9 2.7727 7.88071 1.77778 6.5 1.77778Z" fill="#776284"/>
<path fill-rule="evenodd" clip-rule="evenodd" d="M6.49998 0C3.77921 0 1.41231 1.34333 0.195038 3.32182C-0.0650086 3.74449 -0.065013 4.25542 0.195026 4.67809C1.41229 6.65663 3.77921 8 6.50002 8C9.22079 8 11.5877 6.65667 12.805 4.67818C13.065 4.25552 13.065 3.74458 12.805 3.32191C11.5877 1.34337 9.22079 0 6.49998 0ZM1.0724 3.74833C2.12102 2.04396 4.1586 0.888889 6.49998 0.888889C8.8414 0.888889 10.879 2.044 11.9276 3.74841C12.0241 3.90531 12.0241 4.09477 11.9276 4.25167C10.879 5.95604 8.8414 7.11111 6.50002 7.11111C4.1586 7.11111 2.121 5.956 1.0724 4.25159C0.975865 4.09469 0.975867 3.90524 1.0724 3.74833Z" fill="#776284"/>
</svg>
