<svg width="34" height="30" viewBox="0 0 34 30" fill="none" xmlns="http://www.w3.org/2000/svg">
<path d="M17 22C20.0044 22 22.44 19.6122 22.44 16.6667C22.44 13.7211 20.0044 11.3333 17 11.3333C13.9956 11.3333 11.56 13.7211 11.56 16.6667C11.56 19.6122 13.9956 22 17 22Z" fill="#776284"/>
<path d="M11.9 0L8.789 3.33333H3.4C1.53 3.33333 0 4.83333 0 6.66667V26.6667C0 28.5 1.53 30 3.4 30H30.6C32.47 30 34 28.5 34 26.6667V6.66667C34 4.83333 32.47 3.33333 30.6 3.33333H25.211L22.1 0H11.9ZM17 25C12.308 25 8.5 21.2667 8.5 16.6667C8.5 12.0667 12.308 8.33333 17 8.33333C21.692 8.33333 25.5 12.0667 25.5 16.6667C25.5 21.2667 21.692 25 17 25Z" fill="#776284"/>
</svg>
