<svg width="13" height="12" viewBox="0 0 13 12" fill="none" xmlns="http://www.w3.org/2000/svg">
<path d="M3.79225 0.878908L3.79238 0.878729C3.9402 0.666249 4.17969 0.5 4.47739 0.5C4.77509 0.5 5.01458 0.666249 5.16241 0.878729C5.3074 1.08715 5.36624 1.33436 5.36624 1.55894C5.36624 1.78352 5.3074 2.03073 5.16241 2.23915L3.28235 4.94157H11.6119C11.9272 4.94157 12.1619 5.12417 12.2972 5.31875C12.4331 5.5141 12.5 5.75643 12.5 5.99948C12.5 6.24254 12.4331 6.48486 12.2972 6.68021C12.1619 6.87479 11.9272 7.05739 11.6119 7.05739H3.28235L5.16241 9.75981C5.3074 9.96824 5.36624 10.2154 5.36624 10.44C5.36624 10.6646 5.3074 10.9118 5.16241 11.1202C5.01989 11.3251 4.78062 11.5 4.47883 11.5C4.18204 11.5 3.94209 11.337 3.79318 11.1173L0.704558 6.67763C0.567528 6.48066 0.5 6.23353 0.5 5.99948C0.5 5.77466 0.560135 5.52328 0.706653 5.31832L3.79225 0.878908Z" fill="#6A6A6A" stroke="#6A6A6A"/>
</svg>
