<svg width="60" height="60" viewBox="0 0 60 60" fill="none" xmlns="http://www.w3.org/2000/svg">
<path d="M60 30C60 46.5685 46.5685 60 30 60C13.4315 60 0 46.5685 0 30C0 13.4315 13.4315 0 30 0C46.5685 0 60 13.4315 60 30Z" fill="#D9D9D9"/>
<path d="M30.0723 41.1592H28.3642C27.1612 41.1592 26.1836 42.1544 26.1836 43.379V45.7801C26.1836 47.0047 27.1612 47.9999 28.3642 47.9999H30.0723C31.2754 47.9999 32.253 47.0047 32.253 45.7801V43.379C32.253 42.1507 31.2754 41.1592 30.0723 41.1592Z" fill="#22142A"/>
<path d="M18.0278 22.5737L21.1788 22.9733C22.1782 23.0991 23.1268 22.5145 23.4866 21.5563C23.9409 20.3465 24.5733 19.392 25.3837 18.6964C26.5322 17.7123 27.9605 17.2166 29.6686 17.2166C31.4385 17.2166 32.8487 17.6901 33.8954 18.6335C34.9421 19.5807 35.4618 20.7128 35.4618 22.0409C35.4618 22.9955 35.1674 23.8686 34.5786 24.6603C34.197 25.1635 33.0231 26.2216 31.0642 27.8384C29.1017 29.4551 27.797 30.9128 27.1428 32.2076C26.4741 33.5322 26.2415 35.0009 26.1833 36.4734C26.1325 37.735 27.121 38.7857 28.3639 38.7857H30.1448C31.2787 38.7857 32.2163 37.9015 32.3181 36.7546C32.3908 35.9296 32.5253 35.3044 32.7288 34.8789C33.0704 34.15 33.9536 33.1881 35.371 31.9894C38.1148 29.6771 39.9029 27.8494 40.7425 26.5028C41.5784 25.1598 42 23.7354 42 22.2296C42 19.5104 40.8624 17.1241 38.5837 15.0744C36.3086 13.0248 33.2412 12 29.3888 12C25.7254 12 22.7707 13.01 20.5174 15.0337C18.5984 16.7578 17.4318 18.8 17.0211 21.1567C16.8939 21.8449 17.3554 22.4886 18.0278 22.5737Z" fill="#22142A"/>
</svg>
