<svg width="18" height="18" viewBox="0 0 18 18" fill="none" xmlns="http://www.w3.org/2000/svg">
<path fill-rule="evenodd" clip-rule="evenodd" d="M1.42177 8.71753C1.42177 12.9532 4.43314 15.8391 7.81565 16.436C7.90766 16.4523 7.99563 16.4868 8.07453 16.5378C8.15343 16.5887 8.22173 16.655 8.27551 16.7328C8.3293 16.8107 8.36752 16.8986 8.388 16.9915C8.40848 17.0844 8.41081 17.1805 8.39486 17.2743C8.37891 17.3682 8.345 17.4579 8.29505 17.5384C8.24511 17.6188 8.18011 17.6885 8.10378 17.7433C8.02744 17.7982 7.94125 17.8371 7.85014 17.858C7.75903 17.8789 7.66478 17.8813 7.57277 17.865C3.60082 17.1637 0 13.7491 0 8.71753C0 6.57885 0.95376 4.89796 2.06716 3.62059C2.86537 2.70501 3.7782 1.96058 4.51228 1.39147H2.28002C2.09908 1.39147 1.92555 1.31817 1.79761 1.18769C1.66966 1.05721 1.59779 0.880253 1.59779 0.695733C1.59779 0.511213 1.66966 0.334251 1.79761 0.203776C1.92555 0.0733003 2.09908 0 2.28002 0H6.37341C6.55435 0 6.72788 0.0733003 6.85582 0.203776C6.98376 0.334251 7.05564 0.511213 7.05564 0.695733V4.87013C7.05564 5.05465 6.98376 5.23161 6.85582 5.36209C6.72788 5.49256 6.55435 5.56586 6.37341 5.56586C6.19247 5.56586 6.01894 5.49256 5.891 5.36209C5.76305 5.23161 5.69118 5.05465 5.69118 4.87013V2.30148L5.68981 2.30427C4.90934 2.9026 3.95694 3.6359 3.13144 4.58349C2.15585 5.70223 1.42177 7.05612 1.42177 8.71753ZM16.5782 9.28247C16.5782 5.09137 13.631 2.22356 10.2921 1.58349C10.1991 1.56739 10.1101 1.53255 10.0304 1.481C9.95068 1.42946 9.88183 1.36224 9.82786 1.28327C9.77389 1.2043 9.73588 1.11516 9.71605 1.02106C9.69622 0.926949 9.69496 0.829756 9.71236 0.735149C9.72975 0.640541 9.76545 0.550414 9.81736 0.470024C9.86927 0.389635 9.93637 0.320593 10.0147 0.266927C10.0931 0.21326 10.1811 0.176045 10.2737 0.157451C10.3664 0.138857 10.4617 0.139257 10.5541 0.158627C14.4756 0.910019 18 4.30519 18 9.28247C18 11.4211 17.0462 13.1006 15.9328 14.3794C15.1346 15.295 14.2218 16.0394 13.4877 16.6085H15.72C15.9009 16.6085 16.0744 16.6818 16.2024 16.8123C16.3303 16.9428 16.4022 17.1197 16.4022 17.3043C16.4022 17.4888 16.3303 17.6657 16.2024 17.7962C16.0744 17.9267 15.9009 18 15.72 18H11.6266C11.4457 18 11.2721 17.9267 11.1442 17.7962C11.0162 17.6657 10.9444 17.4888 10.9444 17.3043V13.1299C10.9444 12.9454 11.0162 12.7684 11.1442 12.6379C11.2721 12.5074 11.4457 12.4341 11.6266 12.4341C11.8075 12.4341 11.9811 12.5074 12.109 12.6379C12.2369 12.7684 12.3088 12.9454 12.3088 13.1299V15.6971H12.3116C13.0907 15.096 14.0444 14.3641 14.8686 13.4151C15.8441 12.2978 16.5782 10.9453 16.5782 9.28247Z" fill="#776284"/>
</svg>
