<svg width="43" height="43" viewBox="0 0 43 43" fill="none" xmlns="http://www.w3.org/2000/svg">
<rect width="43" height="43" rx="10" fill="url(#paint0_linear_303_468)"/>
<path fill-rule="evenodd" clip-rule="evenodd" d="M12.6587 21.1705C12.6587 26.112 16.172 29.4789 20.1183 30.1753C20.2256 30.1943 20.3282 30.2346 20.4203 30.2941C20.5123 30.3535 20.592 30.4308 20.6548 30.5216C20.7175 30.6125 20.7621 30.715 20.786 30.8234C20.8099 30.9318 20.8126 31.0439 20.794 31.1534C20.7754 31.2629 20.7358 31.3675 20.6776 31.4614C20.6193 31.5553 20.5435 31.6365 20.4544 31.7005C20.3653 31.7645 20.2648 31.81 20.1585 31.8344C20.0522 31.8587 19.9422 31.8615 19.8349 31.8425C15.201 31.0243 11 27.0406 11 21.1705C11 18.6753 12.1127 16.7143 13.4117 15.224C14.3429 14.1558 15.4079 13.2873 16.2643 12.6234H13.66C13.4489 12.6234 13.2465 12.5379 13.0972 12.3856C12.9479 12.2334 12.8641 12.027 12.8641 11.8117C12.8641 11.5964 12.9479 11.39 13.0972 11.2377C13.2465 11.0855 13.4489 11 13.66 11H18.4356C18.6467 11 18.8492 11.0855 18.9985 11.2377C19.1477 11.39 19.2316 11.5964 19.2316 11.8117V16.6818C19.2316 16.8971 19.1477 17.1035 18.9985 17.2558C18.8492 17.408 18.6467 17.4935 18.4356 17.4935C18.2245 17.4935 18.0221 17.408 17.8728 17.2558C17.7236 17.1035 17.6397 16.8971 17.6397 16.6818V13.6851L17.6381 13.6883C16.7276 14.3864 15.6164 15.2419 14.6534 16.3474C13.5152 17.6526 12.6587 19.2321 12.6587 21.1705ZM30.3413 21.8295C30.3413 16.9399 26.9028 13.5942 23.0075 12.8474C22.8989 12.8286 22.7951 12.788 22.7021 12.7278C22.6091 12.6677 22.5288 12.5893 22.4658 12.4972C22.4029 12.405 22.3585 12.301 22.3354 12.1912C22.3123 12.0814 22.3108 11.968 22.3311 11.8577C22.3514 11.7473 22.393 11.6421 22.4536 11.5484C22.5142 11.4546 22.5924 11.374 22.6838 11.3114C22.7753 11.2488 22.878 11.2054 22.986 11.1837C23.0941 11.162 23.2053 11.1625 23.3131 11.1851C27.8882 12.0617 32 16.0227 32 21.8295C32 24.3247 30.8873 26.2841 29.5883 27.776C28.6571 28.8442 27.5921 29.7127 26.7357 30.3766H29.34C29.5511 30.3766 29.7535 30.4621 29.9028 30.6144C30.0521 30.7666 30.1359 30.973 30.1359 31.1883C30.1359 31.4036 30.0521 31.61 29.9028 31.7623C29.7535 31.9145 29.5511 32 29.34 32H24.5644C24.3533 32 24.1508 31.9145 24.0015 31.7623C23.8523 31.61 23.7684 31.4036 23.7684 31.1883V26.3182C23.7684 26.1029 23.8523 25.8965 24.0015 25.7442C24.1508 25.592 24.3533 25.5065 24.5644 25.5065C24.7755 25.5065 24.9779 25.592 25.1272 25.7442C25.2764 25.8965 25.3603 26.1029 25.3603 26.3182V29.3133H25.3635C26.2724 28.612 27.3852 27.7581 28.3466 26.651C29.4848 25.3474 30.3413 23.7695 30.3413 21.8295Z" fill="white"/>
<defs>
<linearGradient id="paint0_linear_303_468" x1="9.2971e-07" y1="2.29228" x2="53.502" y2="35.5263" gradientUnits="userSpaceOnUse">
<stop stop-color="#FF00E5"/>
<stop offset="1" stop-color="#7000FF"/>
</linearGradient>
</defs>
</svg>
