<svg width="15" height="15" viewBox="0 0 15 15" fill="none" xmlns="http://www.w3.org/2000/svg">
<g clip-path="url(#clip0_948_634)">
<path d="M0 7.49783C0 7.73147 0.186916 7.91839 0.420561 7.91839H10.5794L8.40187 10.096C8.23676 10.2611 8.23676 10.5259 8.40187 10.691C8.48287 10.772 8.5919 10.8156 8.69782 10.8156C8.80374 10.8156 8.91277 10.7751 8.99377 10.691L11.891 7.79378C12.0561 7.62867 12.0561 7.36387 11.891 7.19876L8.99377 4.30157C8.82866 4.13646 8.56386 4.13646 8.39875 4.30157C8.23365 4.46668 8.23365 4.73147 8.39875 4.89658L10.5763 7.07415H0.420561C0.186916 7.07727 0 7.26418 0 7.49783Z" fill="#776284"/>
<path d="M11.9128 0H3.08411C1.38318 0 0 1.38318 0 3.08411V4.8972C0 5.13084 0.186916 5.31776 0.420561 5.31776C0.654206 5.31776 0.841122 5.13084 0.841122 4.8972V3.08411C0.841122 1.84735 1.84735 0.841122 3.08411 0.841122H11.9159C13.1526 0.841122 14.1589 1.84735 14.1589 3.08411V11.9159C14.1589 13.1526 13.1526 14.1589 11.9159 14.1589H3.08411C1.84735 14.1589 0.841122 13.1526 0.841122 11.9159V10.1246C0.841122 9.89097 0.654206 9.70405 0.420561 9.70405C0.186916 9.70405 0 9.89097 0 10.1246V11.9159C0 13.6168 1.38318 15 3.08411 15H11.9159C13.6168 15 15 13.6168 15 11.9159V3.08411C14.9969 1.38318 13.6137 0 11.9128 0Z" fill="#776284"/>
</g>
<defs>
<clipPath id="clip0_948_634">
<rect width="15" height="15" fill="white"/>
</clipPath>
</defs>
</svg>
