<svg width="20" height="20" viewBox="0 0 20 20" fill="none" xmlns="http://www.w3.org/2000/svg">
<path d="M16.5 1H3.5C2.8372 1.00079 2.20178 1.26444 1.73311 1.73311C1.26444 2.20178 1.00079 2.8372 1 3.5V16.5C1.00069 17.1628 1.2643 17.7983 1.73299 18.267C2.20168 18.7357 2.83717 18.9993 3.5 19H10.5C10.6326 19 10.7598 18.9473 10.8536 18.8536C10.9473 18.7598 11 18.6326 11 18.5C11 18.3674 10.9473 18.2402 10.8536 18.1464C10.7598 18.0527 10.6326 18 10.5 18H3.5C3.10231 17.9996 2.72104 17.8414 2.43984 17.5602C2.15863 17.279 2.00045 16.8977 2 16.5V3.5C2.00045 3.10231 2.15863 2.72104 2.43984 2.43984C2.72104 2.15863 3.10231 2.00045 3.5 2H7V7.5C7 7.63261 7.05268 7.75979 7.14645 7.85355C7.24021 7.94732 7.36739 8 7.5 8H12.5C12.6326 8 12.7598 7.94732 12.8536 7.85355C12.9473 7.75979 13 7.63261 13 7.5V2H16.5C16.8977 2.00045 17.279 2.15863 17.5602 2.43984C17.8414 2.72104 17.9996 3.10231 18 3.5V11.5C18 11.6326 18.0527 11.7598 18.1464 11.8536C18.2402 11.9473 18.3674 12 18.5 12C18.6326 12 18.7598 11.9473 18.8536 11.8536C18.9473 11.7598 19 11.6326 19 11.5V3.5C18.9992 2.8372 18.7356 2.20178 18.2669 1.73311C17.7982 1.26444 17.1628 1.00079 16.5 1V1ZM12 7H8V2H12V7Z" fill="#776284" stroke="#776284"/>
<path d="M19 16.4997C19 16.6323 18.9473 16.7595 18.8535 16.8533C18.7597 16.947 18.6326 16.9997 18.5 16.9997H14.707L15.3535 17.6462C15.4012 17.6923 15.4393 17.7475 15.4655 17.8085C15.4917 17.8695 15.5055 17.9351 15.5061 18.0015C15.5067 18.0679 15.494 18.1337 15.4689 18.1952C15.4437 18.2566 15.4066 18.3125 15.3597 18.3594C15.3127 18.4064 15.2569 18.4435 15.1954 18.4686C15.134 18.4938 15.0682 18.5064 15.0018 18.5058C14.9354 18.5053 14.8698 18.4915 14.8088 18.4653C14.7478 18.4391 14.6926 18.401 14.6465 18.3532L13.1471 16.8538C13.0534 16.7598 13.0007 16.6325 13.0007 16.4997C13.0007 16.367 13.0534 16.2396 13.1471 16.1456L14.6465 14.6462C14.7408 14.5551 14.8671 14.5047 14.9982 14.5059C15.1293 14.507 15.2547 14.5596 15.3474 14.6523C15.4401 14.745 15.4927 14.8704 15.4938 15.0015C15.4949 15.1326 15.4445 15.2589 15.3535 15.3532L14.707 15.9997H18.5C18.6326 15.9997 18.7597 16.0524 18.8535 16.1462C18.9473 16.2399 19 16.3671 19 16.4997Z" fill="#776284" stroke="#776284"/>
</svg>