<svg width="16" height="16" viewBox="0 0 16 16" fill="none" xmlns="http://www.w3.org/2000/svg">
<path fill-rule="evenodd" clip-rule="evenodd" d="M2.89236 1.09563C3.9626 0.381282 5.22086 0 6.50802 0C8.23406 0 9.8894 0.684933 11.1099 1.90412C12.3304 3.12331 13.016 4.77688 13.016 6.50108C13.016 7.78687 12.6344 9.04378 11.9192 10.1129C11.2041 11.182 10.1877 12.0152 8.99853 12.5073C7.80935 12.9993 6.5008 13.1281 5.23837 12.8772C3.97594 12.6264 2.81632 12.0072 1.90616 11.098C0.995995 10.1888 0.376166 9.03046 0.125053 7.76937C-0.126061 6.50829 0.00281994 5.20114 0.495396 4.01322C0.987973 2.82531 1.82212 1.80998 2.89236 1.09563ZM9.55488 1.94559C8.65276 1.3445 7.59242 1.02418 6.50802 1.02517C5.05707 1.03306 3.66786 1.61268 2.64234 2.63804C1.61681 3.66341 1.03785 5.05166 1.03127 6.50108C1.03127 7.58432 1.3529 8.64323 1.95546 9.54385C2.55803 10.4445 3.41446 11.1463 4.41641 11.5606C5.41836 11.9749 6.52081 12.0831 7.58431 11.8714C8.6478 11.6597 9.62455 11.1377 10.391 10.3714C11.1574 9.60504 11.6791 8.62885 11.8901 7.5663C12.101 6.50375 11.9917 5.40257 11.5761 4.40207C11.1604 3.40157 10.457 2.54669 9.55488 1.94559Z" fill="#776284"/>
<path d="M12.165 11.4365L15.8545 15.1471C15.9009 15.1937 15.9376 15.249 15.9625 15.3098C15.9875 15.3706 16.0002 15.4357 16 15.5014C15.9998 15.5671 15.9866 15.6321 15.9612 15.6927C15.9358 15.7534 15.8987 15.8084 15.852 15.8547C15.8054 15.901 15.75 15.9377 15.6891 15.9626C15.6283 15.9875 15.5631 16.0002 15.4973 16C15.4316 15.9998 15.3665 15.9866 15.3058 15.9612C15.2451 15.9359 15.19 15.8988 15.1437 15.8522L11.4541 12.1416L12.165 11.4365Z" fill="#776284"/>
</svg>
