<svg width="20" height="20" viewBox="0 0 20 20" fill="none" xmlns="http://www.w3.org/2000/svg">
<path d="M18.4962 3.62668C19.3721 3.93448 20 4.76891 20 5.75V15.75C20 18.0972 18.0972 20 15.75 20H5.75C4.76891 20 3.93448 19.3721 3.62668 18.4962L5.72396 18.4996L15.75 18.5C17.2688 18.5 18.5 17.2688 18.5 15.75V5.75L18.496 5.69902L18.4962 3.62668ZM15.2468 0C16.4895 0 17.4968 1.00736 17.4968 2.25V15.2468C17.4968 16.4895 16.4895 17.4968 15.2468 17.4968H2.25C1.00736 17.4968 0 16.4895 0 15.2468V2.25C0 1.00736 1.00736 0 2.25 0H15.2468ZM15.2468 1.5H2.25C1.83579 1.5 1.5 1.83579 1.5 2.25V15.2468C1.5 15.661 1.83579 15.9968 2.25 15.9968H15.2468C15.661 15.9968 15.9968 15.661 15.9968 15.2468V2.25C15.9968 1.83579 15.661 1.5 15.2468 1.5ZM7.58115 9.35819L11.4697 5.46967C11.7626 5.17678 12.2374 5.17678 12.5303 5.46967C12.7966 5.73594 12.8208 6.1526 12.6029 6.44621L12.5303 6.53033L8.03033 11.0303C7.73449 11.3262 7.26134 11.3189 6.9736 11.0344L6.9 10.95L5.4 8.95C5.15147 8.61863 5.21863 8.14853 5.55 7.9C5.85125 7.67406 6.26715 7.70903 6.527 7.96622L6.6 8.05L7.58115 9.35819L11.4697 5.46967L7.58115 9.35819Z" fill="#745F81"/>
</svg>
