<svg width="24" height="24" viewBox="0 0 24 24" fill="none" xmlns="http://www.w3.org/2000/svg">
<path fill-rule="evenodd" clip-rule="evenodd" d="M9.13491 0.710758C10.0524 0.478601 11.0124 0.355469 12.0001 0.355469C12.9878 0.355469 13.948 0.478618 14.8655 0.710807C15.6143 0.900294 16.0009 1.54695 16.1253 2.0845C16.2726 2.72126 16.6722 3.29487 17.2815 3.64661C17.8416 3.97001 18.4749 4.04599 19.059 3.90828C19.5958 3.78171 20.3453 3.84201 20.8469 4.4274C21.7795 5.51578 22.5152 6.77895 22.9979 8.16163C23.2861 8.98711 22.8396 9.73043 22.3681 10.1189C21.824 10.5672 21.4793 11.2437 21.4793 12.0013C21.4793 12.7589 21.824 13.4354 22.3681 13.8837C22.8396 14.2722 23.2861 15.0155 22.9979 15.841C22.5152 17.2235 21.7797 18.4865 20.8472 19.5749C20.3456 20.1603 19.596 20.2206 19.0591 20.094C18.475 19.9562 17.8416 20.0322 17.2814 20.3556C16.6721 20.7074 16.2725 21.2811 16.1252 21.918C16.0009 22.4556 15.6142 23.1023 14.8653 23.2918C13.9479 23.524 12.9878 23.6471 12.0001 23.6471C11.0125 23.6471 10.0524 23.524 9.135 23.2919C8.38612 23.1024 7.99947 22.4556 7.87513 21.918C7.72783 21.2811 7.32821 20.7074 6.7189 20.3556C6.15869 20.0322 5.52531 19.9562 4.94117 20.094C4.4043 20.2206 3.65467 20.1604 3.15302 19.5749C2.22056 18.4866 1.48499 17.2235 1.00234 15.841C0.714156 15.0155 1.16066 14.2722 1.63209 13.8838C2.17627 13.4354 2.52097 12.7589 2.52097 12.0013C2.52097 11.2437 2.17627 10.5672 1.63209 10.1188C1.16066 9.73042 0.714157 8.9871 1.00234 8.16161C1.48504 6.77892 2.22072 5.51575 3.15333 4.42736C3.65495 3.84196 4.40449 3.78167 4.94132 3.90826C5.52542 4.046 6.15874 3.97003 6.71891 3.64662C7.32815 3.29487 7.72775 2.72124 7.87508 2.08448C7.99947 1.54692 8.38611 0.900237 9.13491 0.710758ZM12.0001 15.2513C10.2052 15.2513 8.75008 13.7962 8.75008 12.0013C8.75008 10.2064 10.2052 8.7513 12.0001 8.7513C13.795 8.7513 15.2501 10.2064 15.2501 12.0013C15.2501 13.7962 13.795 15.2513 12.0001 15.2513Z" fill="#776284"/>
</svg>
