<svg width="28" height="14" viewBox="0 0 28 14" fill="none" xmlns="http://www.w3.org/2000/svg">
<path d="M27 0H1C0.734783 0 0.48043 0.105357 0.292893 0.292893C0.105357 0.48043 0 0.734783 0 1C0 1.26522 0.105357 1.51957 0.292893 1.70711C0.48043 1.89464 0.734783 2 1 2H27C27.2652 2 27.5196 1.89464 27.7071 1.70711C27.8946 1.51957 28 1.26522 28 1C28 0.734783 27.8946 0.48043 27.7071 0.292893C27.5196 0.105357 27.2652 0 27 0Z" fill="#776284"/>
<path d="M22 6H6C5.73478 6 5.48043 6.10536 5.29289 6.29289C5.10536 6.48043 5 6.73478 5 7C5 7.26522 5.10536 7.51957 5.29289 7.70711C5.48043 7.89464 5.73478 8 6 8H22C22.2652 8 22.5196 7.89464 22.7071 7.70711C22.8946 7.51957 23 7.26522 23 7C23 6.73478 22.8946 6.48043 22.7071 6.29289C22.5196 6.10536 22.2652 6 22 6Z" fill="#776284"/>
<path d="M11 12H17C17.2652 12 17.5196 12.1054 17.7071 12.2929C17.8946 12.4804 18 12.7348 18 13C18 13.2652 17.8946 13.5196 17.7071 13.7071C17.5196 13.8946 17.2652 14 17 14H11C10.7348 14 10.4804 13.8946 10.2929 13.7071C10.1054 13.5196 10 13.2652 10 13C10 12.7348 10.1054 12.4804 10.2929 12.2929C10.4804 12.1054 10.7348 12 11 12Z" fill="#776284"/>
</svg>
