<svg width="22" height="22" viewBox="0 0 22 22" fill="none" xmlns="http://www.w3.org/2000/svg">
<g clip-path="url(#clip0_1501_629)">
<path d="M16 0H6C2.68629 0 0 2.68629 0 6V16C0 19.3137 2.68629 22 6 22H16C19.3137 22 22 19.3137 22 16V6C22 2.68629 19.3137 0 16 0Z" fill="#0C0C0C"/>
<path d="M6.30116 11.2668V12.2043H2.68752V11.2668H6.30116ZM2.92616 8.45437V14.9998H1.92047V8.45437H2.92616ZM7.0682 8.45437V14.9998H6.06252V8.45437H7.0682ZM11.6491 15.1362C11.0185 15.1362 10.4744 14.997 10.017 14.7186C9.56252 14.4373 9.21167 14.0453 8.96451 13.5424C8.72019 13.0367 8.59803 12.4487 8.59803 11.7782C8.59803 11.1078 8.72019 10.5168 8.96451 10.0055C9.21167 9.4913 9.55542 9.09073 9.99576 8.8038C10.4389 8.51402 10.956 8.36914 11.5469 8.36914C11.8878 8.36914 12.2244 8.42596 12.5568 8.53959C12.8892 8.65323 13.1918 8.83789 13.4645 9.09357C13.7372 9.34641 13.9545 9.68164 14.1165 10.0992C14.2784 10.5168 14.3594 11.031 14.3594 11.6418V12.068H9.31394V11.1987H13.3366C13.3366 10.8293 13.2628 10.4998 13.1151 10.21C12.9702 9.92027 12.7628 9.69158 12.4929 9.52397C12.2259 9.35635 11.9105 9.27255 11.5469 9.27255C11.1463 9.27255 10.7997 9.37198 10.5071 9.57084C10.2173 9.76687 9.99434 10.0225 9.83809 10.3379C9.68184 10.6532 9.60371 10.9913 9.60371 11.3521V11.9316C9.60371 12.4259 9.68894 12.845 9.8594 13.1887C10.0327 13.5296 10.2727 13.7896 10.5795 13.9686C10.8864 14.1447 11.2429 14.2328 11.6491 14.2328C11.9134 14.2328 12.152 14.1958 12.3651 14.122C12.581 14.0453 12.767 13.9316 12.9233 13.781C13.0795 13.6276 13.2003 13.4373 13.2855 13.21L14.2571 13.4828C14.1548 13.8123 13.983 14.1021 13.7415 14.3521C13.5 14.5992 13.2017 14.7924 12.8466 14.9316C12.4915 15.068 12.0923 15.1362 11.6491 15.1362ZM15.2798 9.39187V8.45437H20.598V9.39187H18.4503V14.9998H17.4446V9.39187H15.2798Z" fill="white"/>
</g>
<defs>
<clipPath id="clip0_1501_629">
<rect width="22" height="22" fill="white"/>
</clipPath>
</defs>
</svg>
