<svg width="22" height="22" viewBox="0 0 22 22" fill="none" xmlns="http://www.w3.org/2000/svg">
<g clip-path="url(#clip0_1501_632)">
<path d="M16 0H6C2.68629 0 0 2.68629 0 6V16C0 19.3137 2.68629 22 6 22H16C19.3137 22 22 19.3137 22 16V6C22 2.68629 19.3137 0 16 0Z" fill="#620000"/>
<path d="M5.05682 16.0007V7.27344H6.11364V11.603H6.21591L10.1364 7.27344H11.517L7.85227 11.2109L11.517 16.0007H10.2386L7.20455 11.9439L6.11364 13.1712V16.0007H5.05682ZM12.4077 8.21094V7.27344H18.9531V8.21094H16.2088V16.0007H15.152V8.21094H12.4077Z" fill="white"/>
</g>
<defs>
<clipPath id="clip0_1501_632">
<rect width="22" height="22" fill="white"/>
</clipPath>
</defs>
</svg>
