<svg width="24" height="20" viewBox="0 0 24 20" fill="none" xmlns="http://www.w3.org/2000/svg">
<path d="M20.5257 11.3809C19.7012 10.6035 18.715 10.0101 17.6267 9.66322C18.8772 8.87085 19.7145 7.4349 19.7145 5.79842C19.7145 3.30801 17.7754 1.28187 15.392 1.28187C15.1655 1.28187 14.943 1.30023 14.7258 1.3355C13.8933 0.508398 12.768 0 11.5312 0C10.2945 0 9.16917 0.508349 8.33663 1.33555C8.11945 1.30028 7.89698 1.28192 7.67044 1.28192C5.28698 1.28192 3.34791 3.30806 3.34791 5.79847C3.34791 7.43494 4.18523 8.87085 5.43567 9.66322C2.29284 10.6652 0 13.7232 0 17.3306C0 17.6065 0.214078 17.8301 0.478078 17.8301H3.74592H16.2525C16.9715 19.1263 18.3138 20 19.8477 20C22.1373 20 24 18.0537 24 15.6614C24 13.5102 22.4939 11.7201 20.5257 11.3809ZM18.9973 11.4144C18.6081 11.4994 18.2388 11.6416 17.8977 11.832C17.4748 11.2983 16.9917 10.8185 16.4594 10.404C17.3809 10.5585 18.2406 10.9092 18.9973 11.4144ZM15.4664 2.28294C17.2883 2.32457 18.7584 3.88493 18.7584 5.79842C18.7584 7.73793 17.2482 9.31592 15.392 9.31592C14.8785 9.31592 14.3918 9.19474 13.956 8.97904C15.2836 8.1252 16.1708 6.59276 16.1708 4.8478C16.1708 3.90658 15.9124 3.02736 15.4664 2.28294ZM8.66283 2.43712C8.88652 2.14707 9.14944 1.8916 9.4433 1.67947C10.0372 1.25091 10.7565 0.999113 11.5312 0.999113C12.306 0.999113 13.0252 1.25091 13.619 1.67947C13.9129 1.8916 14.1758 2.14707 14.3995 2.43712C14.9087 3.09735 15.2145 3.93577 15.2145 4.8477C15.2145 6.39562 14.3349 7.73215 13.071 8.34257C12.7519 8.49665 12.4085 8.60446 12.0483 8.65765C11.8793 8.68258 11.7067 8.69634 11.5312 8.69634C11.3556 8.69634 11.1831 8.68262 11.014 8.65765C10.6538 8.6045 10.3104 8.4967 9.99136 8.34257C8.72742 7.73215 7.84786 6.39562 7.84786 4.8477C7.84786 3.93572 8.15363 3.09735 8.66283 2.43712ZM4.30406 5.79842C4.30406 3.88493 5.77416 2.32457 7.59605 2.28289C7.15003 3.02732 6.89175 3.90648 6.89175 4.8477C6.89175 6.59271 7.77886 8.1251 9.10645 8.97895C8.67056 9.19465 8.18391 9.31582 7.67048 9.31582C5.81423 9.31587 4.30406 7.73793 4.30406 5.79842ZM3.282 16.831H0.973031C1.19367 13.5676 3.5602 10.914 6.60319 10.404C4.70006 11.8861 3.42623 14.203 3.282 16.831ZM15.8489 16.8311H4.23942V16.831C4.41802 13.9545 6.12834 11.5074 8.52436 10.3726C9.08423 10.1074 9.68147 9.91365 10.3055 9.80311C10.7041 9.73248 11.1136 9.6955 11.5312 9.6955C11.9488 9.6955 12.3583 9.73248 12.7569 9.80311C13.3809 9.9137 13.9781 10.1074 14.538 10.3726C15.5336 10.8441 16.4108 11.5419 17.1089 12.4034C16.2429 13.1991 15.6954 14.3646 15.6954 15.6615C15.6955 16.0666 15.7491 16.4588 15.8489 16.8311ZM22.2752 17.8301C21.6885 18.5459 20.8183 19.0009 19.8477 19.0009C18.8772 19.0009 18.0069 18.5459 17.4203 17.8301C17.1797 17.5365 16.9867 17.1992 16.8544 16.831C16.7236 16.4668 16.6516 16.0728 16.6516 15.6614C16.6516 14.6933 17.0482 13.8206 17.6801 13.2101C17.9142 12.984 18.1802 12.7936 18.4708 12.6481C18.888 12.4391 19.3549 12.3218 19.8477 12.3218C19.9326 12.3218 20.0165 12.3264 20.0998 12.3332C20.7884 12.3897 21.416 12.6747 21.9135 13.1161C22.6043 13.7291 23.0438 14.6424 23.0438 15.6614C23.0438 15.863 23.0257 16.0602 22.9928 16.2521C22.8906 16.8474 22.6372 17.3885 22.2752 17.8301Z" fill="#5D4468"/>
</svg>