<svg width="43" height="43" viewBox="0 0 43 43" fill="none" xmlns="http://www.w3.org/2000/svg">
<rect width="43" height="43" rx="10" fill="url(#paint0_linear_174_302)"/>
<path fill-rule="evenodd" clip-rule="evenodd" d="M19.1349 10.7108C20.0524 10.4786 21.0124 10.3555 22.0001 10.3555C22.9878 10.3555 23.948 10.4786 24.8655 10.7108C25.6143 10.9003 26.0009 11.547 26.1253 12.0845C26.2726 12.7213 26.6722 13.2949 27.2815 13.6466C27.8416 13.97 28.4749 14.046 29.059 13.9083C29.5958 13.7817 30.3453 13.842 30.8469 14.4274C31.7795 15.5158 32.5152 16.7789 32.9979 18.1616C33.2861 18.9871 32.8396 19.7304 32.3681 20.1189C31.824 20.5672 31.4793 21.2437 31.4793 22.0013C31.4793 22.7589 31.824 23.4354 32.3681 23.8837C32.8396 24.2722 33.2861 25.0155 32.9979 25.841C32.5152 27.2235 31.7797 28.4865 30.8472 29.5749C30.3456 30.1603 29.596 30.2206 29.0591 30.094C28.475 29.9562 27.8416 30.0322 27.2814 30.3556C26.6721 30.7074 26.2725 31.2811 26.1252 31.918C26.0009 32.4556 25.6142 33.1023 24.8653 33.2918C23.9479 33.524 22.9878 33.6471 22.0001 33.6471C21.0125 33.6471 20.0524 33.524 19.135 33.2919C18.3861 33.1024 17.9995 32.4556 17.8751 31.918C17.7278 31.2811 17.3282 30.7074 16.7189 30.3556C16.1587 30.0322 15.5253 29.9562 14.9412 30.094C14.4043 30.2206 13.6547 30.1604 13.153 29.5749C12.2206 28.4866 11.485 27.2235 11.0023 25.841C10.7142 25.0155 11.1607 24.2722 11.6321 23.8838C12.1763 23.4354 12.521 22.7589 12.521 22.0013C12.521 21.2437 12.1763 20.5672 11.6321 20.1188C11.1607 19.7304 10.7142 18.9871 11.0023 18.1616C11.485 16.7789 12.2207 15.5158 13.1533 14.4274C13.6549 13.842 14.4045 13.7817 14.9413 13.9083C15.5254 14.046 16.1587 13.97 16.7189 13.6466C17.3282 13.2949 17.7277 12.7212 17.8751 12.0845C17.9995 11.5469 18.3861 10.9002 19.1349 10.7108ZM22.0001 25.2513C20.2052 25.2513 18.7501 23.7962 18.7501 22.0013C18.7501 20.2064 20.2052 18.7513 22.0001 18.7513C23.795 18.7513 25.2501 20.2064 25.2501 22.0013C25.2501 23.7962 23.795 25.2513 22.0001 25.2513Z" fill="white"/>
<defs>
<linearGradient id="paint0_linear_174_302" x1="9.2971e-07" y1="2.29228" x2="53.502" y2="35.5263" gradientUnits="userSpaceOnUse">
<stop stop-color="#FF00E5"/>
<stop offset="1" stop-color="#7000FF"/>
</linearGradient>
</defs>
</svg>
