<svg width="43" height="43" viewBox="0 0 43 43" fill="none" xmlns="http://www.w3.org/2000/svg">
<rect width="43" height="43" rx="10" fill="#372447"/>
<path fill-rule="evenodd" clip-rule="evenodd" d="M19.1348 10.7108C20.0523 10.4786 21.0123 10.3555 22 10.3555C22.9877 10.3555 23.9479 10.4786 24.8654 10.7108C25.6142 10.9003 26.0008 11.547 26.1252 12.0845C26.2725 12.7213 26.6721 13.2949 27.2814 13.6466C27.8415 13.97 28.4748 14.046 29.0589 13.9083C29.5957 13.7817 30.3452 13.842 30.8468 14.4274C31.7794 15.5158 32.5151 16.7789 32.9978 18.1616C33.2859 18.9871 32.8394 19.7304 32.368 20.1189C31.8238 20.5672 31.4791 21.2437 31.4791 22.0013C31.4791 22.7589 31.8238 23.4354 32.368 23.8837C32.8394 24.2722 33.2859 25.0155 32.9978 25.841C32.5151 27.2235 31.7796 28.4865 30.8471 29.5749C30.3455 30.1603 29.5958 30.2206 29.059 30.094C28.4749 29.9562 27.8415 30.0322 27.2813 30.3556C26.672 30.7074 26.2724 31.2811 26.1251 31.918C26.0007 32.4556 25.6141 33.1023 24.8652 33.2918C23.9477 33.524 22.9877 33.6471 22 33.6471C21.0124 33.6471 20.0523 33.524 19.1349 33.2919C18.386 33.1024 17.9993 32.4556 17.875 31.918C17.7277 31.2811 17.3281 30.7074 16.7188 30.3556C16.1586 30.0322 15.5252 29.9562 14.941 30.094C14.4042 30.2206 13.6545 30.1604 13.1529 29.5749C12.2204 28.4866 11.4849 27.2235 11.0022 25.841C10.714 25.0155 11.1605 24.2722 11.632 23.8838C12.1761 23.4354 12.5209 22.7589 12.5209 22.0013C12.5209 21.2437 12.1761 20.5672 11.632 20.1188C11.1605 19.7304 10.714 18.9871 11.0022 18.1616C11.4849 16.7789 12.2206 15.5158 13.1532 14.4274C13.6548 13.842 14.4044 13.7817 14.9412 13.9083C15.5253 14.046 16.1586 13.97 16.7188 13.6466C17.328 13.2949 17.7276 12.7212 17.875 12.0845C17.9993 11.5469 18.386 10.9002 19.1348 10.7108ZM22 25.2513C20.205 25.2513 18.75 23.7962 18.75 22.0013C18.75 20.2064 20.205 18.7513 22 18.7513C23.7949 18.7513 25.25 20.2064 25.25 22.0013C25.25 23.7962 23.7949 25.2513 22 25.2513Z" fill="#776284"/>
</svg>
