<svg width="52" height="52" viewBox="0 0 52 52" fill="none" xmlns="http://www.w3.org/2000/svg">
<path fill-rule="evenodd" clip-rule="evenodd" d="M0 13.907C0 6.22637 6.22637 0 13.907 0H38.093C45.7736 0 52 6.22637 52 13.907V38.093C52 45.7736 45.7736 52 38.093 52H13.907C6.22637 52 0 45.7736 0 38.093V13.907ZM18.6708 26.0734L23.508 30.9106C24.2164 31.6189 25.365 31.6189 26.0734 30.9106L35.7478 21.2361C36.4562 20.5278 36.4562 19.3792 35.7478 18.6708C35.0394 17.9624 33.8909 17.9624 33.1825 18.6708L24.7907 27.0626L21.2361 23.508C20.5278 22.7996 19.3792 22.7996 18.6708 23.508C17.9624 24.2164 17.9624 25.365 18.6708 26.0734Z" fill="white"/>
</svg>