<svg width="22" height="21" viewBox="0 0 22 21" fill="none" xmlns="http://www.w3.org/2000/svg">
<path fill-rule="evenodd" clip-rule="evenodd" d="M6 0.25C2.82436 0.25 0.25 2.82436 0.25 6V18.9194C0.25 20.3868 1.94738 21.2026 3.09322 20.2859L5.92069 18.0239C6.14233 17.8466 6.41772 17.75 6.70156 17.75H16C19.1756 17.75 21.75 15.1756 21.75 12V6C21.75 2.82436 19.1756 0.25 16 0.25H6ZM6.0498 10.2998C6.74016 10.2998 7.2998 9.74016 7.2998 9.0498C7.2998 8.35945 6.74016 7.7998 6.0498 7.7998C5.35945 7.7998 4.7998 8.35945 4.7998 9.0498C4.7998 9.74016 5.35945 10.2998 6.0498 10.2998ZM12.2998 9.0498C12.2998 9.74016 11.7402 10.2998 11.0498 10.2998C10.3594 10.2998 9.7998 9.74016 9.7998 9.0498C9.7998 8.35945 10.3594 7.7998 11.0498 7.7998C11.7402 7.7998 12.2998 8.35945 12.2998 9.0498ZM16.0498 10.2998C16.7402 10.2998 17.2998 9.74016 17.2998 9.0498C17.2998 8.35945 16.7402 7.7998 16.0498 7.7998C15.3594 7.7998 14.7998 8.35945 14.7998 9.0498C14.7998 9.74016 15.3594 10.2998 16.0498 10.2998Z" fill="url(#paint0_linear_343_1930)"/>
<defs>
<linearGradient id="paint0_linear_343_1930" x1="0.25" y1="1.33871" x2="26.2181" y2="18.3203" gradientUnits="userSpaceOnUse">
<stop stop-color="#FF00E5"/>
<stop offset="1" stop-color="#7000FF"/>
</linearGradient>
</defs>
</svg>
