<svg width="12" height="10" viewBox="0 0 12 10" fill="none" xmlns="http://www.w3.org/2000/svg">
<path fill-rule="evenodd" clip-rule="evenodd" d="M8.62479 9.99936C8.72424 9.99936 8.81962 9.96174 8.88994 9.89477C8.96026 9.8278 8.99976 9.73697 8.99976 9.64226V1.21977L11.3591 3.46734C11.4295 3.53439 11.525 3.57206 11.6246 3.57206C11.7241 3.57206 11.8196 3.53439 11.89 3.46734C11.9604 3.40029 12 3.30934 12 3.21451C12 3.11969 11.9604 3.02874 11.89 2.96169L8.89027 0.104911C8.85544 0.0716555 8.81406 0.0452711 8.76851 0.0272688C8.72295 0.00926653 8.67411 0 8.62479 0C8.57547 0 8.52663 0.00926653 8.48108 0.0272688C8.43552 0.0452711 8.39415 0.0716555 8.35931 0.104911L5.35955 2.96169C5.28914 3.02874 5.24959 3.11969 5.24959 3.21451C5.24959 3.30934 5.28914 3.40029 5.35955 3.46734C5.42996 3.53439 5.52546 3.57206 5.62503 3.57206C5.7246 3.57206 5.8201 3.53439 5.89051 3.46734L8.24982 1.21977V9.64226C8.24982 9.73697 8.28933 9.8278 8.35965 9.89477C8.42997 9.96174 8.52534 9.99936 8.62479 9.99936ZM3.37521 0.000638327C3.47466 0.000638327 3.57003 0.038261 3.64035 0.10523C3.71067 0.172198 3.75018 0.263028 3.75018 0.357736V8.78023L6.10949 6.53266C6.1799 6.46561 6.2754 6.42794 6.37497 6.42794C6.47454 6.42794 6.57004 6.46561 6.64045 6.53266C6.71086 6.59971 6.75041 6.69066 6.75041 6.78549C6.75041 6.88031 6.71086 6.97126 6.64045 7.03831L3.64069 9.89509C3.60585 9.92834 3.56448 9.95473 3.51892 9.97273C3.47337 9.99073 3.42453 10 3.37521 10C3.32589 10 3.27705 9.99073 3.23149 9.97273C3.18594 9.95473 3.14456 9.92834 3.10973 9.89509L0.109965 7.03831C0.0395556 6.97126 -2.34604e-09 6.88031 0 6.78549C2.34604e-09 6.69066 0.0395556 6.59971 0.109965 6.53266C0.180374 6.46561 0.27587 6.42794 0.375444 6.42794C0.475018 6.42794 0.570514 6.46561 0.640923 6.53266L3.00024 8.78023V0.357736C3.00024 0.263028 3.03974 0.172198 3.11006 0.10523C3.18038 0.038261 3.27576 0.000638327 3.37521 0.000638327Z" fill="white"/>
</svg>
