<svg width="15" height="15" viewBox="0 0 15 15" fill="none" xmlns="http://www.w3.org/2000/svg">
<path fill-rule="evenodd" clip-rule="evenodd" d="M1.18481 7.26461C1.18481 10.7943 3.69428 13.1992 6.51304 13.6967C6.58971 13.7102 6.66302 13.739 6.72878 13.7815C6.79453 13.8239 6.85144 13.8792 6.89626 13.944C6.94108 14.0089 6.97293 14.0821 6.99 14.1596C7.00706 14.237 7.00901 14.3171 6.99572 14.3953C6.98243 14.4735 6.95417 14.5482 6.91255 14.6153C6.87092 14.6824 6.81676 14.7404 6.75315 14.7861C6.68953 14.8318 6.61771 14.8643 6.54179 14.8817C6.46586 14.8991 6.38732 14.9011 6.31064 14.8875C3.00068 14.3031 0 11.4576 0 7.26461C0 5.48237 0.7948 4.08163 1.72263 3.01716C2.38781 2.25417 3.1485 1.63381 3.76023 1.15955H1.90002C1.74923 1.15955 1.60463 1.09847 1.49801 0.989742C1.39139 0.881012 1.33149 0.733544 1.33149 0.579777C1.33149 0.426011 1.39139 0.278542 1.49801 0.169813C1.60463 0.0610836 1.74923 0 1.90002 0H5.31117C5.46196 0 5.60656 0.0610836 5.71318 0.169813C5.8198 0.278542 5.8797 0.426011 5.8797 0.579777V4.05844C5.8797 4.21221 5.8198 4.35968 5.71318 4.46841C5.60656 4.57713 5.46196 4.63822 5.31117 4.63822C5.16039 4.63822 5.01578 4.57713 4.90916 4.46841C4.80255 4.35968 4.74265 4.21221 4.74265 4.05844V1.9179L4.74151 1.92022C4.09112 2.41883 3.29745 3.02992 2.60954 3.81957C1.79654 4.75185 1.18481 5.8801 1.18481 7.26461ZM13.8152 7.73539C13.8152 4.24281 11.3592 1.85297 8.57679 1.31957C8.49924 1.30615 8.42509 1.27712 8.35866 1.23417C8.29223 1.19121 8.23486 1.1352 8.18988 1.06939C8.14491 1.00359 8.11323 0.929304 8.0967 0.850881C8.08018 0.772458 8.07913 0.691464 8.09363 0.612624C8.10813 0.533785 8.13787 0.458678 8.18113 0.391687C8.22439 0.324695 8.2803 0.267161 8.3456 0.222439C8.4109 0.177717 8.48428 0.146704 8.56145 0.131209C8.63863 0.115714 8.71805 0.116047 8.7951 0.132189C12.063 0.758349 15 3.58766 15 7.73539C15 9.51762 14.2052 10.9172 13.2774 11.9828C12.6122 12.7458 11.8515 13.3662 11.2398 13.8404H13.1C13.2508 13.8404 13.3954 13.9015 13.502 14.0103C13.6086 14.119 13.6685 14.2665 13.6685 14.4202C13.6685 14.574 13.6086 14.7215 13.502 14.8302C13.3954 14.9389 13.2508 15 13.1 15H9.68883C9.53804 15 9.39344 14.9389 9.28682 14.8302C9.1802 14.7215 9.1203 14.574 9.1203 14.4202V10.9416C9.1203 10.7878 9.1802 10.6403 9.28682 10.5316C9.39344 10.4229 9.53804 10.3618 9.68883 10.3618C9.83961 10.3618 9.98422 10.4229 10.0908 10.5316C10.1975 10.6403 10.2574 10.7878 10.2574 10.9416V13.0809H10.2596C10.9089 12.58 11.7037 11.9701 12.3905 11.1793C13.2035 10.2481 13.8152 9.12106 13.8152 7.73539Z" fill="#776284"/>
</svg>
