<svg width="18" height="20" viewBox="0 0 18 20" fill="none" xmlns="http://www.w3.org/2000/svg">
<path d="M17.92 13.62C17.8694 13.4988 17.7983 13.3872 17.71 13.29L14.71 10.29C14.5217 10.1017 14.2663 9.99591 14 9.99591C13.7337 9.99591 13.4783 10.1017 13.29 10.29C13.1017 10.4783 12.9959 10.7337 12.9959 11C12.9959 11.2663 13.1017 11.5217 13.29 11.71L14.59 13H9C8.73478 13 8.48043 13.1054 8.29289 13.2929C8.10536 13.4804 8 13.7348 8 14C8 14.2652 8.10536 14.5196 8.29289 14.7071C8.48043 14.8946 8.73478 15 9 15H14.59L13.29 16.29C13.1963 16.383 13.1219 16.4936 13.0711 16.6154C13.0203 16.7373 12.9942 16.868 12.9942 17C12.9942 17.132 13.0203 17.2627 13.0711 17.3846C13.1219 17.5064 13.1963 17.617 13.29 17.71C13.383 17.8037 13.4936 17.8781 13.6154 17.9289C13.7373 17.9797 13.868 18.0058 14 18.0058C14.132 18.0058 14.2627 17.9797 14.3846 17.9289C14.5064 17.8781 14.617 17.8037 14.71 17.71L17.71 14.71C17.8026 14.6161 17.8742 14.5036 17.92 14.38C18.02 14.1365 18.02 13.8635 17.92 13.62ZM11 18H3C2.73478 18 2.48043 17.8946 2.29289 17.7071C2.10536 17.5196 2 17.2652 2 17V3C2 2.73478 2.10536 2.48043 2.29289 2.29289C2.48043 2.10536 2.73478 2 3 2H8V5C8 5.79565 8.31607 6.55871 8.87868 7.12132C9.44129 7.68393 10.2044 8 11 8H15C15.1974 7.99901 15.3901 7.93961 15.5539 7.82928C15.7176 7.71895 15.845 7.56262 15.92 7.38C15.9966 7.19789 16.0175 6.99718 15.9801 6.80319C15.9428 6.6092 15.8488 6.43062 15.71 6.29L9.71 0.29C9.62734 0.212216 9.53282 0.148081 9.43 0.0999999H9.34L9.06 0H3C2.20435 0 1.44129 0.316071 0.87868 0.87868C0.316071 1.44129 0 2.20435 0 3V17C0 17.7956 0.316071 18.5587 0.87868 19.1213C1.44129 19.6839 2.20435 20 3 20H11C11.2652 20 11.5196 19.8946 11.7071 19.7071C11.8946 19.5196 12 19.2652 12 19C12 18.7348 11.8946 18.4804 11.7071 18.2929C11.5196 18.1054 11.2652 18 11 18ZM10 3.41L12.59 6H11C10.7348 6 10.4804 5.89464 10.2929 5.70711C10.1054 5.51957 10 5.26522 10 5V3.41Z" fill="white"/>
</svg>
