<svg width="19" height="19" viewBox="0 0 19 19" fill="none" xmlns="http://www.w3.org/2000/svg">
<path d="M10.2308 0.730769C10.2308 0.327177 9.90359 0 9.5 0C9.09641 0 8.76923 0.327176 8.76923 0.730769V8.76923H0.730769C0.327177 8.76923 0 9.09641 0 9.5C0 9.90359 0.327176 10.2308 0.730769 10.2308H8.76923V18.2692C8.76923 18.6728 9.09641 19 9.5 19C9.90359 19 10.2308 18.6728 10.2308 18.2692V10.2308H18.2692C18.6728 10.2308 19 9.90359 19 9.5C19 9.09641 18.6728 8.76923 18.2692 8.76923H10.2308V0.730769Z" fill="white"/>
</svg>
