<svg width="21" height="21" viewBox="0 0 21 21" fill="none" xmlns="http://www.w3.org/2000/svg">
<path fill-rule="evenodd" clip-rule="evenodd" d="M1.65873 10.1705C1.65873 15.112 5.172 18.4789 9.11825 19.1753C9.2256 19.1943 9.32823 19.2346 9.42028 19.2941C9.51234 19.3535 9.59202 19.4308 9.65477 19.5216C9.71751 19.6125 9.76211 19.715 9.786 19.8234C9.80989 19.9318 9.81261 20.0439 9.794 20.1534C9.7754 20.2629 9.73583 20.3675 9.67756 20.4614C9.61929 20.5553 9.54346 20.6365 9.4544 20.7005C9.36534 20.7645 9.26479 20.81 9.1585 20.8344C9.0522 20.8587 8.94225 20.8615 8.8349 20.8425C4.20095 20.0244 0 16.0406 0 10.1705C0 7.67532 1.11272 5.71429 2.41169 4.22403C3.34293 3.15584 4.4079 2.28734 5.26433 1.62338H2.66002C2.44893 1.62338 2.24648 1.53786 2.09721 1.38564C1.94794 1.23342 1.86408 1.02696 1.86408 0.811688C1.86408 0.596415 1.94794 0.389959 2.09721 0.237738C2.24648 0.0855171 2.44893 0 2.66002 0H7.43564C7.64674 0 7.84919 0.0855171 7.99845 0.237738C8.14772 0.389959 8.23158 0.596415 8.23158 0.811688V5.68182C8.23158 5.89709 8.14772 6.10355 7.99845 6.25577C7.84919 6.40799 7.64674 6.49351 7.43564 6.49351C7.22455 6.49351 7.0221 6.40799 6.87283 6.25577C6.72356 6.10355 6.63971 5.89709 6.63971 5.68182V2.68506L6.63811 2.68831C5.72756 3.38636 4.61643 4.24188 3.65335 5.3474C2.51516 6.6526 1.65873 8.23214 1.65873 10.1705ZM19.3413 10.8295C19.3413 5.93993 15.9028 2.59416 12.0075 1.8474C11.8989 1.82862 11.7951 1.78797 11.7021 1.72784C11.6091 1.6677 11.5288 1.58928 11.4658 1.49715C11.4029 1.40502 11.3585 1.30103 11.3354 1.19123C11.3123 1.08144 11.3108 0.968049 11.3311 0.857674C11.3514 0.747298 11.393 0.642149 11.4536 0.548362C11.5142 0.454574 11.5924 0.374025 11.6838 0.311414C11.7753 0.248804 11.878 0.205386 11.986 0.183693C12.0941 0.162 12.2053 0.162466 12.3131 0.185065C16.8882 1.06169 21 5.02273 21 10.8295C21 13.3247 19.8873 15.2841 18.5883 16.776C17.6571 17.8442 16.5921 18.7127 15.7357 19.3766H18.34C18.5511 19.3766 18.7535 19.4621 18.9028 19.6144C19.0521 19.7666 19.1359 19.973 19.1359 20.1883C19.1359 20.4036 19.0521 20.61 18.9028 20.7623C18.7535 20.9145 18.5511 21 18.34 21H13.5644C13.3533 21 13.1508 20.9145 13.0015 20.7623C12.8523 20.61 12.7684 20.4036 12.7684 20.1883V15.3182C12.7684 15.1029 12.8523 14.8965 13.0015 14.7442C13.1508 14.592 13.3533 14.5065 13.5644 14.5065C13.7755 14.5065 13.9779 14.592 14.1272 14.7442C14.2764 14.8965 14.3603 15.1029 14.3603 15.3182V18.3133H14.3635C15.2724 17.612 16.3852 16.7581 17.3466 15.651C18.4848 14.3474 19.3413 12.7695 19.3413 10.8295Z" fill="white"/>
</svg>
