<svg width="23" height="24" viewBox="0 0 23 24" fill="none" xmlns="http://www.w3.org/2000/svg">
<path fill-rule="evenodd" clip-rule="evenodd" d="M8.22366 0.355289C9.14112 0.123132 10.1012 0 11.0889 0C12.0766 0 13.0367 0.12315 13.9542 0.355339C14.703 0.544825 15.0897 1.19148 15.214 1.72903C15.3614 2.36579 15.761 2.9394 16.3702 3.29115C16.9304 3.61454 17.5637 3.69052 18.1477 3.55281C18.6845 3.42624 19.4341 3.48654 19.9357 4.07193C20.8683 5.16032 21.6039 6.42348 22.0866 7.80616C22.3748 8.63165 21.9283 9.37496 21.4569 9.76339C20.9127 10.2117 20.568 10.8882 20.568 11.6458C20.568 12.4035 20.9127 13.0799 21.4569 13.5283C21.9283 13.9167 22.3748 14.66 22.0866 15.4855C21.604 16.868 20.8684 18.1311 19.936 19.2194C19.4343 19.8049 18.6847 19.8651 18.1479 19.7385C17.5637 19.6008 16.9304 19.6767 16.3702 20.0001C15.7609 20.3519 15.3612 20.9256 15.2139 21.5625C15.0896 22.1001 14.703 22.7469 13.9541 22.9364C13.0366 23.1685 12.0765 23.2917 11.0889 23.2917C10.1012 23.2917 9.14119 23.1685 8.22375 22.9364C7.47487 22.7469 7.08822 22.1001 6.96387 21.5625C6.81658 20.9256 6.41696 20.3519 5.80764 20.0001C5.24743 19.6767 4.61406 19.6007 4.02991 19.7385C3.49305 19.8652 2.74341 19.8049 2.24177 19.2194C1.3093 18.1311 0.573733 16.8681 0.0910816 15.4855C-0.197099 14.66 0.249402 13.9167 0.720835 13.5283C1.26501 13.0799 1.60972 12.4035 1.60972 11.6458C1.60972 10.8882 1.26501 10.2117 0.720836 9.76338C0.249403 9.37495 -0.197098 8.63163 0.0910833 7.80615C0.573789 6.42345 1.30947 5.16028 2.24208 4.07189C2.74369 3.48649 3.49324 3.42621 4.03006 3.55279C4.61417 3.69053 5.24749 3.61456 5.80765 3.29115C6.4169 2.9394 6.81649 2.36578 6.96383 1.72901C7.08821 1.19145 7.47486 0.544768 8.22366 0.355289ZM11.0888 14.8958C9.2939 14.8958 7.83883 13.4408 7.83883 11.6458C7.83883 9.85091 9.2939 8.39583 11.0888 8.39583C12.8838 8.39583 14.3388 9.85091 14.3388 11.6458C14.3388 13.4408 12.8838 14.8958 11.0888 14.8958Z" fill="#776284"/>
</svg>
