<svg width="25" height="18" viewBox="0 0 25 18" fill="none" xmlns="http://www.w3.org/2000/svg">
<path d="M6.02461 3.79222H21.0006C22.5426 3.79222 22.5426 2.19301 21.0606 2.19301H10.7093C10.1162 2.19301 9.82041 1.30409 9.82041 1.30409C9.82041 1.30409 9.40524 0 8.57491 0H0.865424C-0.260737 0 0.0350943 1.30409 0.0350943 1.30409C0.0350943 1.30409 1.75506 15.9313 1.87368 16.821C1.9923 17.7106 2.91195 17.9728 2.91195 17.9728L4.92775 5.037C5.07638 4.08877 5.72807 3.82223 6.02461 3.79222ZM24.0511 4.35459H6.49909C5.97531 4.35459 5.55014 4.77904 5.55014 5.30282L3.71227 17.0218C3.71227 17.5462 4.13744 17.9707 4.66122 17.9707H22.2132C22.7362 17.9707 23.1621 17.5462 23.1621 17.0218L25 5.30282C25 4.77904 24.5763 4.35459 24.0511 4.35459Z" fill="#776284"/>
</svg>
