<svg width="25" height="24" viewBox="0 0 25 24" fill="none" xmlns="http://www.w3.org/2000/svg">
<g clip-path="url(#clip0_0_1)">
<path d="M21.3644 15.3289L16.676 6.22832C16.9329 5.65902 17.077 5.02144 17.077 4.3485C17.077 1.95071 15.2481 0 13.0001 0C10.7519 0 8.92302 1.95071 8.92302 4.3485C8.92302 5.02144 9.06712 5.65914 9.3241 6.22837L4.63568 15.3289C2.59444 15.5644 1 17.4128 1 19.6515C1 22.0493 2.82891 24 5.07703 24C6.45544 24 7.67541 23.2659 8.41364 22.1457H17.5864C18.3246 23.2659 19.5446 24 20.923 24C23.1711 24 25 22.0493 25 19.6515C25.0001 17.4128 23.4056 15.5644 21.3644 15.3289ZM13.0001 1.66282C14.3885 1.66282 15.518 2.86759 15.518 4.3485C15.518 5.82941 14.3885 7.03418 13.0001 7.03418C11.6116 7.03418 10.482 5.82941 10.482 4.3485C10.482 2.86759 11.6116 1.66282 13.0001 1.66282ZM5.07703 22.3372C3.68859 22.3372 2.55899 21.1324 2.55899 19.6515C2.55899 18.1706 3.68859 16.9658 5.07703 16.9658C6.46547 16.9658 7.59502 18.1706 7.59502 19.6515C7.59502 21.1324 6.46547 22.3372 5.07703 22.3372ZM7.68622 16.3133C7.2881 15.9587 6.82581 15.6836 6.3209 15.5107L10.3643 7.66223C10.7598 8.02062 11.2198 8.29981 11.7231 8.47734L7.68622 16.3133ZM16.9217 20.4829H9.0784C9.12751 20.2136 9.15401 19.9358 9.15401 19.6515C9.15401 19.3672 9.12751 19.0894 9.0784 18.8201H16.9217C16.8725 19.0894 16.846 19.3672 16.846 19.6515C16.846 19.9358 16.8725 20.2136 16.9217 20.4829ZM9.03033 17.1573L13.0001 9.4517L16.9698 17.1573H9.03033ZM14.2769 8.47734C14.7803 8.29981 15.2403 8.02062 15.6358 7.66217L19.6792 15.5106C19.1742 15.6836 18.7119 15.9586 18.3138 16.3132L14.2769 8.47734ZM20.923 22.3372C19.5346 22.3372 18.405 21.1324 18.405 19.6515C18.405 18.1706 19.5346 16.9658 20.923 16.9658C22.3115 16.9658 23.4411 18.1706 23.4411 19.6515C23.4411 21.1324 22.3115 22.3372 20.923 22.3372Z" fill="#776284"/>
</g>
<path d="M0.355114 10.995V9.72727H6.32812V10.995H4.10156V17H2.58168V10.995H0.355114ZM6.91179 17V9.72727H11.8124V10.995H8.44943V12.728H11.5602V13.9957H8.44943V15.7322H11.8266V17H6.91179ZM16.5801 11.8189C16.5517 11.5324 16.4298 11.3099 16.2144 11.1513C15.9989 10.9927 15.7066 10.9134 15.3373 10.9134C15.0863 10.9134 14.8744 10.9489 14.7016 11.0199C14.5288 11.0885 14.3962 11.1844 14.3039 11.3075C14.2139 11.4306 14.1689 11.5703 14.1689 11.7266C14.1642 11.8568 14.1914 11.9704 14.2506 12.0675C14.3122 12.1645 14.3962 12.2486 14.5027 12.3196C14.6093 12.3883 14.7324 12.4486 14.8721 12.5007C15.0117 12.5504 15.1609 12.593 15.3195 12.6286L15.9729 12.7848C16.2901 12.8558 16.5813 12.9505 16.8465 13.0689C17.1116 13.1873 17.3413 13.3329 17.5354 13.5057C17.7295 13.6785 17.8799 13.8821 17.9864 14.1165C18.0953 14.3509 18.1509 14.6196 18.1533 14.9226C18.1509 15.3677 18.0373 15.7536 17.8124 16.0803C17.5899 16.4046 17.2679 16.6567 16.8465 16.8366C16.4275 17.0142 15.922 17.103 15.3301 17.103C14.743 17.103 14.2317 17.013 13.7961 16.8331C13.3628 16.6532 13.0243 16.3868 12.7804 16.0341C12.539 15.679 12.4123 15.2398 12.4005 14.7166H13.8884C13.905 14.9605 13.9748 15.1641 14.0979 15.3274C14.2234 15.4884 14.3903 15.6103 14.5986 15.6932C14.8093 15.7737 15.0472 15.8139 15.3124 15.8139C15.5728 15.8139 15.7989 15.776 15.9907 15.7003C16.1848 15.6245 16.3351 15.5192 16.4417 15.3842C16.5482 15.2493 16.6015 15.0942 16.6015 14.919C16.6015 14.7557 16.5529 14.6184 16.4559 14.5071C16.3612 14.3958 16.2215 14.3011 16.0368 14.223C15.8545 14.1449 15.6308 14.0739 15.3657 14.0099L14.5738 13.8111C13.9606 13.6619 13.4765 13.4287 13.1213 13.1115C12.7662 12.7943 12.5899 12.367 12.5922 11.8295C12.5899 11.3892 12.707 11.0045 12.9438 10.6754C13.1829 10.3464 13.5108 10.0895 13.9275 9.90483C14.3441 9.72017 14.8176 9.62784 15.3479 9.62784C15.8877 9.62784 16.3588 9.72017 16.7613 9.90483C17.1661 10.0895 17.481 10.3464 17.7059 10.6754C17.9308 11.0045 18.0468 11.3857 18.0539 11.8189H16.5801ZM18.5106 10.995V9.72727H24.4836V10.995H22.257V17H20.7371V10.995H18.5106Z" fill="white"/>
<defs>
<clipPath id="clip0_0_1">
<rect width="24" height="24" fill="white" transform="translate(1)"/>
</clipPath>
</defs>
</svg>
