<svg width="24" height="24" viewBox="0 0 24 24" fill="none" xmlns="http://www.w3.org/2000/svg">
<path d="M6 13V11.5823C6 10.5552 5.66688 9.55584 5.05063 8.73418V8.73418C4.20573 7.60763 5.00954 6 6.41772 6H17.5823C18.9905 6 19.7943 7.60763 18.9494 8.73418V8.73418C18.3331 9.55584 18 10.5552 18 11.5823V18C18 20.2091 16.2091 22 14 22H10C7.79086 22 6 20.2091 6 18V17" stroke="white" stroke-width="1.5" stroke-linecap="round"/>
<path d="M14 17L14 11" stroke="white" stroke-width="1.5" stroke-linecap="round" stroke-linejoin="round"/>
<path d="M10 17L10 11" stroke="white" stroke-width="1.5" stroke-linecap="round" stroke-linejoin="round"/>
<path d="M14.6368 3.31557C14.3222 3.11415 13.9504 3 13.5585 3H10.4415C10.0496 3 9.67777 3.11415 9.36322 3.31557" stroke="white" stroke-width="1.5" stroke-linecap="round"/>
</svg>
