<svg width="30" height="16" viewBox="0 0 30 16" fill="none" xmlns="http://www.w3.org/2000/svg">
<path fill-rule="evenodd" clip-rule="evenodd" d="M29.3119 1.08343C29.5194 0.459429 29.3119 0 28.3182 0H25.037C24.202 0 23.817 0.396571 23.6083 0.834286C23.6083 0.834286 21.9395 4.48686 19.5758 6.85943C18.8109 7.54743 18.4634 7.76571 18.0459 7.76571C17.8371 7.76571 17.5234 7.54743 17.5234 6.92229V1.08343C17.5234 0.333714 17.2934 0 16.5984 0H11.4385C10.9173 0 10.6035 0.347429 10.6035 0.677714C10.6035 1.38743 11.786 1.552 11.9073 3.54971V7.89029C11.9073 8.84229 11.716 9.01486 11.2985 9.01486C10.186 9.01486 7.47984 5.34514 5.87363 1.14629C5.56238 0.329143 5.24739 0 4.40866 0H1.12498C0.187496 0 0 0.396571 0 0.834286C0 1.61371 1.11248 5.48571 5.18114 10.6069C7.89358 14.104 11.7123 16 15.1909 16C17.2771 16 17.5346 15.5794 17.5346 14.8537V12.2103C17.5346 11.368 17.7321 11.2 18.3934 11.2C18.8809 11.2 19.7146 11.4194 21.662 13.1051C23.887 15.104 24.2532 16 25.5057 16H28.7869C29.7244 16 30.1944 15.5794 29.9244 14.7474C29.6269 13.92 28.5644 12.7189 27.1557 11.2937C26.3907 10.4823 25.2432 9.608 24.8945 9.17029C24.4082 8.60914 24.547 8.35886 24.8945 7.85943C24.8945 7.85943 28.8944 2.80114 29.3106 1.08343H29.3119Z" fill="white"/>
</svg>
