<svg width="37" height="38" viewBox="0 0 37 38" fill="none" xmlns="http://www.w3.org/2000/svg">
<path d="M0 12.34C0 5.80095 5.30095 0.5 11.84 0.5H25.16C31.6991 0.5 37 5.80095 37 12.34V25.66C37 32.1991 31.6991 37.5 25.16 37.5H11.84C5.30095 37.5 0 32.1991 0 25.66V12.34Z" fill="#432C56"/>
<path d="M18.5 20.0169C21.0278 20.0169 23.0787 17.966 23.0787 15.4381C23.0787 12.9103 21.0278 10.8594 18.5 10.8594C15.9721 10.8594 13.9212 12.9103 13.9212 15.4381C13.9212 17.966 15.9721 20.0169 18.5 20.0169ZM22.57 21.0344H20.818C20.1121 21.3587 19.3267 21.5431 18.5 21.5431C17.6733 21.5431 16.8911 21.3587 16.182 21.0344H14.43C12.1819 21.0344 10.36 22.8563 10.36 25.1044V25.6131C10.36 26.4557 11.0436 27.1394 11.8862 27.1394H25.1137C25.9564 27.1394 26.64 26.4557 26.64 25.6131V25.1044C26.64 22.8563 24.818 21.0344 22.57 21.0344Z" fill="url(#paint0_linear_28_148)"/>
<defs>
<linearGradient id="paint0_linear_28_148" x1="10.36" y1="11.7272" x2="30.6161" y2="24.3098" gradientUnits="userSpaceOnUse">
<stop stop-color="#FF00E5"/>
<stop offset="1" stop-color="#7000FF"/>
</linearGradient>
</defs>
</svg>
