<svg width="24" height="24" viewBox="0 0 24 24" fill="none" xmlns="http://www.w3.org/2000/svg">
<path d="M14.6198 1.93606C12.9917 1.02131 11.0083 1.02131 9.38018 1.93606L3.34356 5.32762C1.88548 6.14682 1.88548 8.25428 3.34356 9.07348L9.38018 12.465C11.0083 13.3798 12.9917 13.3798 14.6198 12.465L20.6564 9.07348C22.1145 8.25428 22.1145 6.14682 20.6564 5.32762L14.6198 1.93606Z" fill="#5D4468"/>
<path d="M2.97517 15.3379C1.89805 16.2779 2.02084 18.0812 3.34356 18.8243L9.38018 22.2159C11.0083 23.1306 12.9917 23.1306 14.6198 22.2159L20.6564 18.8243C21.9792 18.0812 22.102 16.2779 21.0248 15.3379L15.3545 18.5236C13.2701 19.6947 10.7299 19.6947 8.64545 18.5236L2.97517 15.3379Z" fill="#5D4468"/>
<path d="M2.81218 10.4961C1.91468 11.4681 2.0918 13.1208 3.34356 13.8241L9.38018 17.2157C11.0083 18.1304 12.9917 18.1304 14.6198 17.2157L20.6564 13.8241C21.9082 13.1208 22.0853 11.4681 21.1878 10.4961L15.3545 13.7734C13.2701 14.9445 10.7299 14.9445 8.64545 13.7734L2.81218 10.4961Z" fill="#5D4468"/>
</svg>
