<svg width="121" height="12" viewBox="0 0 121 12" fill="none" xmlns="http://www.w3.org/2000/svg">
<path d="M7.106 0.992999C7.73933 0.992999 8.322 1.09433 8.854 1.297C9.39867 1.49967 9.861 1.78467 10.241 2.152C10.6337 2.51933 10.9377 2.96267 11.153 3.482C11.381 3.98867 11.495 4.55233 11.495 5.173C11.495 5.79367 11.381 6.35733 11.153 6.864C10.9377 7.37067 10.6337 7.80133 10.241 8.156C9.861 8.51067 9.39867 8.783 8.854 8.973C8.322 9.163 7.73933 9.258 7.106 9.258H3.686V11.5H0.893V0.992999H7.106ZM3.686 6.712H6.992C7.486 6.712 7.89133 6.58533 8.208 6.332C8.52467 6.07867 8.683 5.69233 8.683 5.173C8.683 4.66633 8.52467 4.26733 8.208 3.976C7.89133 3.68467 7.486 3.539 6.992 3.539H3.686V6.712ZM15.8393 0.992999V11.5H13.0463V0.992999H15.8393ZM20.1753 0.992999L25.7993 7.339V0.992999H28.5733V11.5H26.0083L20.3843 5.154V11.5H17.6293V0.992999H20.1753ZM33.1318 0.992999V4.698H35.6018L38.1288 0.992999H41.3588L37.9768 5.857L41.5868 11.5H38.2618L35.6778 7.263H33.1318V11.5H30.3578V0.992999H33.1318ZM52.5904 0.992999V3.52H45.7124V4.907H51.8874V7.434H45.7124V8.916H52.8374V11.5H42.9194V0.992999H52.5904ZM63.6595 4.47C63.0515 4.02667 62.4182 3.71 61.7595 3.52C61.1008 3.33 60.3598 3.235 59.5365 3.235C59.0932 3.235 58.7258 3.26033 58.4345 3.311C58.1558 3.349 57.9342 3.41233 57.7695 3.501C57.6048 3.577 57.4908 3.66567 57.4275 3.767C57.3768 3.86833 57.3515 3.976 57.3515 4.09C57.3515 4.30533 57.4528 4.451 57.6555 4.527C57.8582 4.59033 58.1178 4.641 58.4345 4.679L61.4935 5.021C62.6462 5.16033 63.5582 5.48333 64.2295 5.99C64.9008 6.49667 65.2365 7.25667 65.2365 8.27C65.2365 8.878 65.0908 9.40367 64.7995 9.847C64.5208 10.2777 64.1345 10.6387 63.6405 10.93C63.1465 11.2087 62.5575 11.4177 61.8735 11.557C61.2022 11.6963 60.4738 11.766 59.6885 11.766C58.5992 11.766 57.6175 11.633 56.7435 11.367C55.8695 11.101 55.0018 10.6387 54.1405 9.98L55.4515 7.814C56.1735 8.32067 56.8955 8.70067 57.6175 8.954C58.3522 9.20733 59.1248 9.334 59.9355 9.334C60.6575 9.334 61.2655 9.25167 61.7595 9.087C62.2662 8.92233 62.5195 8.66267 62.5195 8.308C62.5195 8.13067 62.4752 7.99133 62.3865 7.89C62.2978 7.78867 62.0888 7.72533 61.7595 7.7L58.1495 7.282C57.0348 7.15533 56.1608 6.85133 55.5275 6.37C54.9068 5.876 54.5965 5.12233 54.5965 4.109C54.5965 3.539 54.7232 3.045 54.9765 2.627C55.2425 2.19633 55.5972 1.84167 56.0405 1.563C56.4965 1.28433 57.0222 1.08167 57.6175 0.955C58.2128 0.815666 58.8525 0.745999 59.5365 0.745999C60.5498 0.745999 61.5062 0.866332 62.4055 1.107C63.3048 1.335 64.1725 1.772 65.0085 2.418L63.6595 4.47ZM77.3469 0.992999V3.501H73.2619V11.5H70.4499V3.501H66.3649V0.992999H77.3469ZM89.3764 0.992999C90.1364 0.992999 90.8521 1.11333 91.5234 1.354C92.2074 1.59467 92.8028 1.943 93.3094 2.399C93.8288 2.84233 94.2404 3.387 94.5444 4.033C94.8484 4.679 95.0004 5.41367 95.0004 6.237C95.0004 7.06033 94.8421 7.80133 94.5254 8.46C94.2214 9.106 93.8098 9.657 93.2904 10.113C92.7838 10.5563 92.1884 10.8983 91.5044 11.139C90.8204 11.3797 90.1111 11.5 89.3764 11.5H84.1894V0.992999H89.3764ZM85.6714 10.132H89.2814C89.9274 10.132 90.5101 10.0433 91.0294 9.866C91.5488 9.676 91.9921 9.41 92.3594 9.068C92.7268 8.726 93.0118 8.32067 93.2144 7.852C93.4171 7.37067 93.5184 6.83233 93.5184 6.237C93.5184 5.65433 93.4171 5.12233 93.2144 4.641C93.0118 4.15967 92.7268 3.748 92.3594 3.406C91.9921 3.064 91.5488 2.80433 91.0294 2.627C90.5101 2.437 89.9274 2.342 89.2814 2.342H85.6714V10.132ZM106.116 0.992999V2.342H98.3257V5.439H105.318V6.788H98.3257V10.132H106.401V11.5H96.8437V0.992999H106.116ZM109.524 0.992999L113.457 10.113H114.464L118.416 0.992999H120.069L115.395 11.5H112.507L107.89 0.992999H109.524Z" fill="white"/>
</svg>
