<svg width="38" height="38" viewBox="0 0 38 38" fill="none" xmlns="http://www.w3.org/2000/svg">
<path d="M38 19C38 29.4934 29.4934 38 19 38C8.50659 38 0 29.4934 0 19C0 8.50659 8.50659 0 19 0C29.4934 0 38 8.50659 38 19ZM9.5 19C9.5 24.2467 13.7533 28.5 19 28.5C24.2467 28.5 28.5 24.2467 28.5 19C28.5 13.7533 24.2467 9.5 19 9.5C13.7533 9.5 9.5 13.7533 9.5 19Z" fill="url(#paint0_linear_25_15)"/>
<path fill-rule="evenodd" clip-rule="evenodd" d="M32.4214 17.8101L34.7359 17.6603L34.7757 18.2755L32.4664 18.4339L32.4214 17.8101ZM34.4281 16.9646C34.3686 17.0635 34.2817 17.1475 34.1796 17.2207C34.0776 17.2861 33.9593 17.3337 33.8248 17.3594C33.6902 17.3852 33.5634 17.3846 33.4444 17.3577C33.3253 17.3308 33.2194 17.2829 33.1265 17.2141C33.0336 17.1453 32.961 17.0566 32.892 16.948C32.8441 16.8395 32.7836 16.7168 32.7574 16.5798L32.6157 15.8402L32.1297 15.9332L32.0137 15.3277L34.2988 14.8915L34.5491 16.236C34.5753 16.3731 34.5776 16.517 34.556 16.629C34.5343 16.7539 34.4917 16.8658 34.4281 16.9646ZM33.9928 16.3195L33.8556 15.6027L33.1677 15.7381L33.305 16.4512C33.3255 16.5644 33.3697 16.6409 33.4378 16.699C33.5059 16.7571 33.6036 16.7755 33.7088 16.7539C33.8186 16.7329 33.8985 16.6819 33.9486 16.6012C34.004 16.5205 34.0134 16.4265 33.9928 16.3195ZM31.2319 12.4731L31.3668 12.0648L31.8817 12.1686L32.1059 11.6862L32.5196 11.8154L32.2258 12.8405L31.2319 12.4731ZM30.3113 8.78935L29.0249 9.99887L28.6026 9.56322L29.8889 8.3402L29.2713 7.69924L29.6746 7.30404L31.3323 9.06706L30.9289 9.4463L30.3113 8.78935ZM28.2998 6.93412C28.2067 6.81477 28.0866 6.70176 27.9396 6.59505C27.8603 6.53756 27.7924 6.49435 27.7357 6.46533C27.6791 6.43628 27.643 6.41842 27.5907 6.41174C27.5506 6.40508 27.5189 6.40711 27.4956 6.41776C27.4723 6.42845 27.4533 6.44397 27.4386 6.46429C27.4199 6.50268 27.4165 6.54122 27.4376 6.57991C27.4811 6.61856 27.5042 6.66183 27.5559 6.70963L28.0582 7.16713C28.2461 7.34134 28.3673 7.52062 28.4217 7.69453C28.4761 7.87187 28.4378 8.05088 28.3105 8.24022C28.2282 8.33991 28.1351 8.42397 28.0277 8.45556C27.9202 8.49655 27.804 8.51041 27.6789 8.49719C27.5537 8.48398 27.4216 8.44584 27.2911 8.38284C27.1435 8.31976 27.0037 8.23742 26.8634 8.13563C26.6688 8.01072 26.5106 7.84343 26.389 7.69283C26.2673 7.52181 26.1722 7.32673 26.1037 7.1114L26.6186 6.88031C26.682 7.06444 26.7622 7.22631 26.8596 7.36599C26.9568 7.50568 27.0779 7.64104 27.2228 7.73311C27.3518 7.82669 27.4716 7.8912 27.5824 7.92663C27.6931 7.96208 27.7715 7.94812 27.8174 7.88472C27.8404 7.85306 27.865 7.8224 27.8479 7.8063C27.8451 7.7632 27.816 7.72482 27.7605 7.67759L27.1697 7.13497C26.9869 6.98238 26.8711 6.80011 26.8223 6.63169C26.7735 6.46333 26.8147 6.28859 26.9461 6.1075C27.02 6.00566 27.1076 5.93368 27.2146 5.89149C27.3104 5.84933 27.4193 5.83251 27.5358 5.841C27.6522 5.84949 27.7723 5.88042 27.8959 5.93384C28.0195 5.98723 28.1487 6.05827 28.2646 6.14692C28.4457 6.27827 28.6012 6.42333 28.7313 6.58209C28.8614 6.74087 28.9589 6.94577 29.0239 7.15723L28.5161 7.35012C28.4649 7.19213 28.3928 7.0534 28.2998 6.93412ZM25.0925 5.02493L24.9623 5.30922L26.1898 5.89253L25.9529 6.39289L24.7345 5.80959L24.581 6.10525L26.0024 6.7783L25.7583 7.29383L23.7797 6.35695L24.7722 4.27507L26.7016 5.18153L26.4647 5.67464L25.0925 5.02493ZM23.6658 6.29436L22.9556 6.12057L22.6401 5.05983L22.0964 4.91781L21.8601 5.82272L21.2636 5.66692L21.8496 3.42289L22.4461 3.57869L22.2395 4.3792L22.767 4.50777L23.5288 3.86567L24.2032 4.03761L23.2096 4.88778L23.6658 6.29436ZM20.4707 5.59499L19.3133 4.12154L19.2286 5.51979L18.6216 5.48303L18.7618 3.16797L19.3228 3.20194L20.4772 4.67523L20.5619 3.27697L21.1773 3.31423L21.0371 5.62931L20.4707 5.59499ZM19.3163 32.5202L19.1654 34.8346L18.6046 34.7981L17.457 33.3195L17.3658 34.7173L16.7506 34.689L16.9015 32.3628L17.4678 32.3997L18.6183 33.8785L18.7094 32.4892L19.3163 32.5202ZM17.6231 3.26815L18.2383 3.2269L18.3934 5.5481L17.7783 5.58226L17.6231 3.26815ZM17.1814 4.87848C17.1129 4.97154 17.0243 5.04993 16.9159 5.11365C16.8075 5.17739 16.6849 5.22253 16.548 5.26407L15.824 5.39242L15.9029 5.87828L15.2977 5.99563L14.864 3.71873L16.2001 3.45815C16.3371 3.43158 16.4681 3.429 16.5931 3.4503C16.718 3.47166 16.83 3.51405 16.929 3.57742C17.028 3.64086 17.1122 3.72345 17.1818 3.82531C17.2513 3.9272 17.2991 4.04542 17.3251 4.17988C17.3512 4.31753 17.3509 4.44123 17.3243 4.56028C17.2976 4.67938 17.2501 4.78547 17.1814 4.87848ZM16.7199 4.31057C16.6986 4.20131 16.6475 4.10767 16.5667 4.0578C16.501 4.008 16.3919 3.99343 16.2848 4.01418L15.5684 4.15309L15.7017 4.84069L16.4181 4.70178C16.5252 4.68959 16.6077 4.63659 16.6657 4.56835C16.7378 4.50017 16.7544 4.40982 16.7199 4.31057ZM15.0016 31.8742L15.3074 32.9247L15.8389 33.0693L16.0795 32.1655L16.6753 32.3241L16.0787 34.5654L15.4829 34.4068L15.6933 33.6164L15.1664 33.4762L14.4249 34.123L13.7281 33.9396L14.7256 33.0941L14.276 31.6854L15.0016 31.8742ZM11.2352 32.7958L11.4745 32.2921L12.8555 32.9482L12.9795 32.6808L11.7504 32.0755L11.9896 31.5762L13.2188 32.1653L13.3601 31.8703L11.9419 31.1906L12.1884 30.6762L14.1626 31.6223L13.1603 33.7139L11.2352 32.7958ZM12.1513 6.58582L12.2588 6.07756L11.778 5.84405L11.9206 5.43482L12.9331 5.73223L12.5587 6.72356L12.1513 6.58582ZM11.3261 31.0857C11.2636 30.9013 11.1841 30.7391 11.0874 30.5989C10.9908 30.4588 10.8703 30.3359 10.7259 30.2433C10.5973 30.1359 10.4778 30.0709 10.3672 30.0349C10.2567 29.999 10.1782 30.0126 10.1319 30.0758C10.1088 30.1073 10.1114 30.1448 10.1011 30.1676C10.1037 30.1972 10.1327 30.2357 10.188 30.2832L10.7763 30.8285C10.9672 30.9965 11.0732 31.1648 11.1213 31.3334C11.1693 31.502 11.1273 31.6765 11.0054 31.857C10.9207 31.9585 10.8328 32.0301 10.7311 32.0718C10.6451 32.1135 10.5206 32.1298 10.4041 32.1208C10.2878 32.1117 10.1679 32.0803 10.0445 32.0263C9.92112 31.9723 9.79853 31.9007 9.681 31.8115C9.49631 31.6793 9.34145 31.5335 9.21204 31.3742C9.08275 31.2148 8.98608 31.0226 8.9221 30.8127L9.43079 30.6071C9.48125 30.7654 9.55273 30.9044 9.6452 31.0241C9.73773 31.1456 9.85727 31.2575 10.0039 31.3785C10.0828 31.4227 10.1506 31.4662 10.2198 31.4955C10.2793 31.5248 10.3119 31.5429 10.3519 31.5498C10.392 31.5566 10.4236 31.5548 10.447 31.5442C10.4703 31.5336 10.4894 31.5182 10.5042 31.4979C10.5323 31.4597 10.5328 31.4212 10.5058 31.3884C10.4788 31.3435 10.4395 31.3001 10.388 31.252L9.88785 30.7922C9.70076 30.6172 9.58042 30.4408 9.5268 30.2632C9.47321 30.0856 9.5194 29.9067 9.64418 29.7267C9.72333 29.6187 9.81672 29.5444 9.92435 29.5039C10.032 29.4635 10.1483 29.4502 10.2734 29.464C10.3984 29.4777 10.5304 29.5308 10.6692 29.5801C10.8079 29.6514 10.9473 29.7269 11.1026 29.8293C11.2811 29.9714 11.4386 30.1231 11.5595 30.2929C11.6804 30.4459 11.7746 30.6414 11.8421 30.8873L11.3261 31.0857ZM9.61691 9.33264L8.41638 8.0379L7.75997 8.65101L7.37878 8.24507L9.15322 6.59964L9.52963 7.01697L8.86844 7.61871L10.069 8.91344L9.61691 9.33264ZM6.99928 9.61739C6.8793 9.70963 6.76545 9.82892 6.66778 9.97528C6.5997 10.0541 6.55603 10.1217 6.52659 10.1782C6.49716 10.2346 6.47895 10.2829 6.472 10.3229C6.46506 10.3629 6.46687 10.3946 6.47736 10.418C6.4879 10.4413 6.50327 10.4605 6.52349 10.4754C6.56169 10.5035 6.60023 10.5041 6.64618 10.4771C6.67795 10.4502 6.72149 10.4111 6.76964 10.3597L7.23062 9.87178C7.40612 9.67389 7.58276 9.55396 7.76052 9.50074C7.94316 9.44758 8.11694 9.48709 8.29664 9.61937C8.4045 9.69878 8.47853 9.79234 8.51875 9.90006C8.559 10.0078 8.57205 10.1242 8.55795 10.2492C8.54388 10.3742 8.50481 10.5061 8.44087 10.6447C8.37683 10.7833 8.29351 10.9378 8.19075 11.0621C8.05461 11.2558 7.89611 11.4129 7.73446 11.5334C7.58318 11.6642 7.3771 11.7478 7.14729 11.8147L6.9338 11.2982C7.11836 11.2361 7.28078 11.157 7.42113 11.0606C7.5615 10.9643 7.68466 10.8441 7.79075 10.7C7.88524 10.5716 7.95055 10.4522 7.98677 10.3417C8.02299 10.2312 8.00955 10.1582 7.94649 10.1063C7.91497 10.0831 7.89924 10.0728 7.85478 10.0753C7.82517 10.0778 7.78658 10.1067 7.73896 10.1619L7.19228 10.7489C7.03562 10.9306 6.85536 11.0451 6.68661 11.0928C6.51791 11.1423 6.34347 11.098 6.17055 10.9653C6.06199 10.8908 5.99061 10.8027 5.94914 10.7009C5.92019 10.5993 5.8916 10.4902 5.9009 10.3738C5.91022 10.2574 5.94197 10.1376 5.99625 10.0143C6.05049 9.89111 6.1224 9.77625 6.21189 9.64708C6.34448 9.46696 6.49061 9.31244 6.65026 9.19445C6.80996 9.05811 7.00233 8.95826 7.22742 8.89479L7.41677 9.40395C7.25843 9.45402 7.11922 9.52519 6.99928 9.61739ZM5.35116 12.948L5.94471 11.7202L6.44174 11.9606L5.84984 13.1884L6.1473 13.3304L6.82747 11.9137L7.34126 12.1614L6.39058 14.1335L4.30143 13.1263L5.22844 11.2034L5.72712 11.4438L5.06783 12.8114L5.35116 12.948ZM6.34184 14.2466L6.13687 14.9554L5.08564 15.2635L4.93978 15.8062L5.843 16.049L5.68299 16.6444L3.44322 16.0424L3.60322 15.447L4.39301 15.6593L4.54159 15.1328L3.88948 14.3818L4.0745 13.6933L4.91762 14.6929L6.34184 14.2466ZM5.60549 17.4459L4.1241 18.5842L5.52169 18.6785L5.48073 19.2925L3.16675 19.1291L3.20459 18.5684L4.6858 17.4241L3.28821 17.3298L3.32973 16.7146L5.6437 16.8708L5.60549 17.4459ZM5.5742 20.1293L3.25913 20.2685L3.22214 19.653L5.53721 19.5139L5.5742 20.1293ZM3.56356 20.9647C3.62769 20.8661 3.71696 20.7825 3.81322 20.7283C3.91558 20.6448 4.03413 20.5979 4.17814 20.5727C4.30346 20.5504 4.43027 20.5625 4.54913 20.5763C4.66803 20.6177 4.77379 20.6521 4.8663 20.7213C4.95889 20.7906 5.03665 20.8797 5.09962 20.9885C5.16259 21.1066 5.20686 21.2203 5.23245 21.3574L5.37062 22.0977L5.85709 22.0069L5.97021 22.6129L3.69033 23.0385L3.43917 21.6927C3.41357 21.5703 3.41192 21.4245 3.43409 21.2997C3.45634 21.1749 3.49949 21.0632 3.56356 20.9647ZM3.99579 21.6119L4.12966 22.3293L4.81817 22.2008L4.68428 21.4834C4.66428 21.3762 4.62043 21.2934 4.5577 21.2349C4.48482 21.1765 4.3946 21.1578 4.28187 21.1788C4.17197 21.1993 4.09182 21.2499 4.05717 21.3303C3.991 21.4109 3.97579 21.5047 3.99579 21.6119ZM6.73869 25.482L6.60391 25.8792L6.0875 25.773L5.86108 26.2543L5.45153 26.1231L5.74652 25.0994L6.73869 25.482ZM7.64196 29.1592L8.93393 27.9557L9.35415 28.4068L8.06219 29.6103L8.67678 30.2701L8.27171 30.6475L6.6223 28.8767L7.02737 28.4994L7.64196 29.1592ZM20.3045 34.7397L19.6892 34.778L19.5448 32.4632L20.1601 32.4285L20.3045 34.7397ZM20.754 33.1314C20.8381 33.0386 20.912 32.9606 21.0207 32.8974C21.1294 32.8342 21.2522 32.7896 21.3933 32.7637L22.1292 32.6238L22.0372 32.1375L22.643 32.0301L23.0869 34.3019L21.7288 34.5562C21.6058 34.5822 21.4606 34.5841 21.3358 34.5622C21.2109 34.5403 21.0991 34.4974 21.0004 34.4336C20.9017 34.3697 20.8179 34.2867 20.7542 34.1845C20.6798 34.0823 20.6325 33.9793 20.6071 33.8293C20.5816 33.6946 20.5825 33.5678 20.6097 33.4489C20.6369 33.3299 20.685 33.224 20.754 33.1314ZM21.2129 33.7147C21.2336 33.8246 21.2844 33.9046 21.365 33.9549C21.4456 34.0051 21.5395 34.0201 21.662 34.0095L22.3637 33.8642L22.2336 33.1836L21.5165 33.3116C21.4094 33.3318 21.3267 33.3759 21.2684 33.4439C21.2101 33.5118 21.1916 33.602 21.2129 33.7147ZM25.9077 31.3835L25.8027 31.8982L26.2845 32.1235L26.1543 32.5334L25.1299 32.2408L25.4997 31.2477L25.9077 31.3835ZM28.4288 28.6254L29.6353 29.9145L30.2936 29.2984L30.6719 29.7026L28.9051 31.3562L28.5335 30.952L29.1876 30.3358L27.9935 29.0466L28.4288 28.6254ZM31.0452 28.3284C31.1647 28.2516 31.278 28.1158 31.3851 27.9689C31.4427 27.8898 31.4861 27.822 31.5153 27.7654C31.5444 27.7088 31.5624 27.6605 31.5692 27.6205C31.576 27.5804 31.574 27.5487 31.5634 27.5254C31.5527 27.5049 31.5373 27.483 31.517 27.4682C31.4787 27.4403 31.4401 27.4399 31.4014 27.4833C31.3627 27.4941 31.3193 27.5334 31.2735 27.585L30.8127 28.0863C30.6381 28.2738 30.462 28.3945 30.2988 28.4486C30.107 28.5026 29.9281 28.4639 29.7478 28.3324C29.6396 28.266 29.5651 28.1603 29.5244 28.0528C29.4837 27.9452 29.4701 27.8289 29.4836 27.7104C29.5073 27.5787 29.5355 27.4467 29.5989 27.3078C29.6764 27.1688 29.7449 27.0293 29.847 26.8892C29.9887 26.6949 30.14 26.5371 30.3011 26.4158C30.4622 26.2997 30.6575 26.1998 30.9033 26.1318L31.1029 26.6473C30.9186 26.7102 30.7566 26.7901 30.6167 26.8871C30.4768 26.9841 30.3541 27.1049 30.2487 27.2495C30.1566 27.3783 30.0901 27.498 30.0543 27.6087C30.0186 27.7193 30.0324 27.7977 30.0957 27.8438C30.1273 27.8669 30.158 27.877 30.1876 27.8745C30.2172 27.8718 30.2556 27.8427 30.319 27.7873L30.847 27.1977C31.0145 27.0154 31.1825 26.9 31.351 26.8516C31.5195 26.8031 31.6941 26.8448 31.8749 26.9766C31.9766 27.0507 32.0483 27.1385 32.0903 27.24C32.1408 27.3415 32.1488 27.4504 32.14 27.5669C32.1313 27.6833 32.1001 27.8033 32.0464 27.9268C31.9927 28.0503 31.9214 28.173 31.8324 28.295C31.7007 28.4758 31.5553 28.631 31.3962 28.7608C31.2371 28.8904 31.0452 28.9875 30.8204 29.052L30.6287 28.5438C30.7868 28.493 30.9257 28.4211 31.0452 28.3284ZM32.6778 24.9902L32.0916 26.228L31.5918 25.9827L32.178 24.7521L31.8827 24.6226L31.2063 26.0313L30.6914 25.786L31.6329 23.8095L33.7267 24.8069L32.8108 26.7441L32.3089 26.5045L32.9618 25.1255L32.6778 24.9902ZM31.6957 23.7008L31.8829 22.986L32.9326 22.6729L33.0759 22.1295L32.1716 21.891L32.3288 21.2949L34.5713 21.8862L34.4142 22.4824L33.6234 22.2738L33.4844 22.801L34.1329 23.5511L33.9512 24.2384L33.1033 23.2427L31.6957 23.7008ZM32.4025 20.5025L33.8786 19.3485L32.4947 19.2606L32.5188 18.6537L34.8334 18.7992L34.7981 19.3601L33.3346 20.5158L34.7202 20.5991L34.6815 21.2144L32.3669 21.0689L32.4025 20.5025Z" fill="white"/>
<path d="M23.276 15.7174C23.1316 15.7174 23.0146 15.5994 23.0146 15.4539C23.0146 15.3084 23.1316 15.1905 23.276 15.1905C23.4205 15.1905 23.5375 15.3084 23.5375 15.4539C23.5375 15.5994 23.4205 15.7174 23.276 15.7174Z" fill="url(#paint1_linear_25_15)"/>
<path d="M13.9262 17.6839C14.0706 17.6839 14.1876 17.8019 14.1876 17.9474C14.1876 18.0928 14.0706 18.2108 13.9262 18.2108C13.7818 18.2108 13.6647 18.0928 13.6647 17.9474C13.6647 17.8019 13.7818 17.6839 13.9262 17.6839Z" fill="url(#paint2_linear_25_15)"/>
<path d="M20.2916 24.1343C20.2916 24.2798 20.4086 24.3977 20.553 24.3977C20.6974 24.3977 20.8145 24.2798 20.8145 24.1343C20.8145 23.9888 20.6974 23.8709 20.553 23.8709C20.4086 23.8709 20.2916 23.9888 20.2916 24.1343Z" fill="url(#paint3_linear_25_15)"/>
<path d="M21.6979 20.92C21.6064 20.92 21.5318 20.8449 21.5318 20.7527C21.5318 20.6604 21.6064 20.5853 21.6979 20.5853C21.7895 20.5853 21.864 20.6604 21.864 20.7527C21.864 20.8449 21.7895 20.92 21.6979 20.92Z" fill="url(#paint4_linear_25_15)"/>
<path d="M16.333 20.4274C16.333 20.3352 16.4076 20.2601 16.4991 20.2601C16.5907 20.2601 16.6653 20.3352 16.6653 20.4274C16.6653 20.5197 16.5907 20.5948 16.4991 20.5948C16.4076 20.5948 16.333 20.5197 16.333 20.4274Z" fill="url(#paint5_linear_25_15)"/>
<path d="M19.0098 15.9979C18.9182 15.9979 18.8427 15.9228 18.8427 15.8305C18.8427 15.7383 18.9173 15.6632 19.0098 15.6632C19.1023 15.6632 19.1759 15.7383 19.1759 15.8305C19.1759 15.9228 19.1014 15.9979 19.0098 15.9979Z" fill="url(#paint6_linear_25_15)"/>
<path fill-rule="evenodd" clip-rule="evenodd" d="M19.0325 26.5637C23.1906 26.5637 26.5614 23.1929 26.5614 19.0348C26.5614 14.8767 23.1906 11.5059 19.0325 11.5059C14.8743 11.5059 11.5035 14.8767 11.5035 19.0348C11.5035 23.1929 14.8743 26.5637 19.0325 26.5637ZM23.276 14.6742C23.2081 14.6742 23.143 14.6837 23.0807 14.6998C22.0273 13.7118 20.6427 13.1545 19.1854 13.1545C17.494 13.1545 15.897 13.9029 14.8059 15.2086C14.6718 15.3693 14.6916 15.6089 14.8512 15.7449C15.0107 15.88 15.2485 15.86 15.3835 15.6993C16.3321 14.5657 17.7177 13.9153 19.1854 13.9153C20.436 13.9153 21.6252 14.3879 22.5361 15.2276C22.5144 15.2989 22.503 15.375 22.503 15.453C22.503 15.8838 22.8494 16.2328 23.277 16.2328C23.7046 16.2328 24.051 15.8838 24.051 15.453C24.051 15.0222 23.7046 14.6732 23.277 14.6732L23.276 14.6742ZM17.913 23.7653C15.7356 23.1862 14.214 21.1949 14.214 18.923C14.214 18.8384 14.2178 18.7528 14.2225 18.6672C14.5029 18.5503 14.6992 18.2716 14.6992 17.9474C14.6992 17.5166 14.3528 17.1676 13.9252 17.1676C13.4977 17.1676 13.1522 17.5175 13.1522 17.9474C13.1522 18.206 13.2777 18.4342 13.4703 18.5769C13.4627 18.6929 13.459 18.8089 13.459 18.924C13.459 21.541 15.2108 23.8347 17.7195 24.5014C17.7516 24.5099 17.7847 24.5137 17.8158 24.5137C17.9829 24.5137 18.1358 24.4006 18.1811 24.2303C18.234 24.0268 18.1141 23.8195 17.9121 23.7653H17.913ZM24.8155 17.8798C24.8787 18.2279 24.9108 18.5788 24.9108 18.924L24.9127 18.9249C24.9127 21.3042 23.4629 23.4144 21.3147 24.2798C21.2477 24.6411 20.9334 24.915 20.5549 24.915C20.1273 24.915 19.7809 24.566 19.7809 24.1352C19.7809 23.7045 20.1273 23.3555 20.5549 23.3555C20.755 23.3555 20.9372 23.4325 21.074 23.558C22.9164 22.7963 24.1567 20.9752 24.1567 18.924C24.1567 18.6254 24.1284 18.3201 24.0736 18.0168C24.0359 17.8104 24.1718 17.6126 24.3766 17.5746C24.5805 17.5365 24.7777 17.6735 24.8155 17.8798ZM20.5209 18.9268C20.5209 19.66 19.931 20.2544 19.2033 20.2544C18.4756 20.2544 17.8857 19.66 17.8857 18.9268C17.8857 18.1936 18.4756 17.5993 19.2033 17.5993C19.931 17.5993 20.5209 18.1936 20.5209 18.9268ZM22.4219 18.1214C22.1849 17.1628 21.5431 16.3631 20.6616 15.9275C20.5445 15.8695 20.4029 15.918 20.3463 16.0359C20.2887 16.1538 20.3369 16.2965 20.4539 16.3545C21.2109 16.7282 21.7612 17.4148 21.9641 18.2364C22.133 18.9192 22.0453 19.6315 21.7281 20.2477C21.723 20.2477 21.7181 20.247 21.7133 20.2463L21.7097 20.2458C21.7058 20.2453 21.7019 20.2449 21.6979 20.2449C21.4195 20.2449 21.1948 20.4721 21.1948 20.7517C21.1948 21.0313 21.4204 21.2586 21.6979 21.2586C21.9754 21.2586 22.201 21.0313 22.201 20.7517C22.201 20.6585 22.1746 20.5729 22.1311 20.4978C22.5144 19.7722 22.622 18.9287 22.4219 18.1214ZM20.6908 21.6599C20.637 21.5401 20.4973 21.4868 20.3784 21.541C20.2179 21.6142 20.0537 21.6723 19.8895 21.7131C18.7748 21.9927 17.6195 21.5657 16.9399 20.668C16.9786 20.5958 17.0032 20.5149 17.0032 20.4274C17.0032 20.1469 16.7776 19.9206 16.5001 19.9206C16.2226 19.9206 15.997 20.1479 15.997 20.4274C15.997 20.707 16.2226 20.9343 16.5001 20.9343C16.5067 20.9343 16.5133 20.9337 16.5199 20.9328C16.5236 20.9324 16.5272 20.9318 16.5309 20.9313L16.531 20.9312L16.532 20.9311C16.5355 20.9306 16.539 20.93 16.5426 20.9296C17.1712 21.7788 18.1622 22.2733 19.2023 22.2733C19.4685 22.2733 19.7375 22.2409 20.0046 22.1744C20.1962 22.1259 20.3878 22.0593 20.5747 21.9737C20.6936 21.9195 20.7465 21.7788 20.6927 21.6589L20.6908 21.6599ZM19.0098 15.3227C18.7937 15.3227 18.6105 15.4606 18.5398 15.6536C18.4926 15.6632 18.4454 15.6736 18.3991 15.685C16.938 16.0511 15.9036 17.3663 15.8828 18.8812C15.8809 19.0124 15.9847 19.1208 16.115 19.1227H16.1188C16.2471 19.1227 16.3528 19.0181 16.3547 18.8888C16.3727 17.5888 17.2608 16.462 18.5133 16.1472C18.5426 16.1396 18.5728 16.1329 18.603 16.1272C18.6945 16.2546 18.8427 16.3383 19.0098 16.3383C19.2882 16.3383 19.5129 16.1111 19.5129 15.8315C19.5129 15.5519 19.2873 15.3246 19.0098 15.3246V15.3227Z" fill="url(#paint7_linear_25_15)"/>
<defs>
<linearGradient id="paint0_linear_25_15" x1="8.21604e-07" y1="2.02573" x2="47.2809" y2="31.3954" gradientUnits="userSpaceOnUse">
<stop stop-color="#FF00E5"/>
<stop offset="1" stop-color="#7000FF"/>
</linearGradient>
<linearGradient id="paint1_linear_25_15" x1="11.5035" y1="12.3086" x2="30.239" y2="23.9465" gradientUnits="userSpaceOnUse">
<stop stop-color="#FF00E5"/>
<stop offset="1" stop-color="#7000FF"/>
</linearGradient>
<linearGradient id="paint2_linear_25_15" x1="11.5035" y1="12.3086" x2="30.239" y2="23.9465" gradientUnits="userSpaceOnUse">
<stop stop-color="#FF00E5"/>
<stop offset="1" stop-color="#7000FF"/>
</linearGradient>
<linearGradient id="paint3_linear_25_15" x1="11.5035" y1="12.3086" x2="30.239" y2="23.9465" gradientUnits="userSpaceOnUse">
<stop stop-color="#FF00E5"/>
<stop offset="1" stop-color="#7000FF"/>
</linearGradient>
<linearGradient id="paint4_linear_25_15" x1="11.5035" y1="12.3086" x2="30.239" y2="23.9465" gradientUnits="userSpaceOnUse">
<stop stop-color="#FF00E5"/>
<stop offset="1" stop-color="#7000FF"/>
</linearGradient>
<linearGradient id="paint5_linear_25_15" x1="11.5035" y1="12.3086" x2="30.239" y2="23.9465" gradientUnits="userSpaceOnUse">
<stop stop-color="#FF00E5"/>
<stop offset="1" stop-color="#7000FF"/>
</linearGradient>
<linearGradient id="paint6_linear_25_15" x1="11.5035" y1="12.3086" x2="30.239" y2="23.9465" gradientUnits="userSpaceOnUse">
<stop stop-color="#FF00E5"/>
<stop offset="1" stop-color="#7000FF"/>
</linearGradient>
<linearGradient id="paint7_linear_25_15" x1="11.5035" y1="12.3086" x2="30.239" y2="23.9465" gradientUnits="userSpaceOnUse">
<stop stop-color="#FF00E5"/>
<stop offset="1" stop-color="#7000FF"/>
</linearGradient>
</defs>
</svg>
