<svg width="24" height="24" viewBox="0 0 24 24" fill="none" xmlns="http://www.w3.org/2000/svg">
<path fill-rule="evenodd" clip-rule="evenodd" d="M9.13504 0.710758C10.0525 0.478601 11.0126 0.355469 12.0002 0.355469C12.988 0.355469 13.9481 0.478618 14.8656 0.710807C15.6144 0.900294 16.001 1.54695 16.1254 2.0845C16.2728 2.72126 16.6724 3.29487 17.2816 3.64661C17.8417 3.97001 18.475 4.04599 19.0591 3.90828C19.5959 3.78171 20.3454 3.84201 20.847 4.4274C21.7796 5.51578 22.5153 6.77895 22.998 8.16163C23.2862 8.98711 22.8397 9.73043 22.3683 10.1189C21.8241 10.5672 21.4794 11.2437 21.4794 12.0013C21.4794 12.7589 21.8241 13.4354 22.3683 13.8837C22.8397 14.2722 23.2862 15.0155 22.998 15.841C22.5154 17.2235 21.7798 18.4865 20.8473 19.5749C20.3457 20.1603 19.5961 20.2206 19.0592 20.094C18.4751 19.9562 17.8417 20.0322 17.2815 20.3556C16.6722 20.7074 16.2726 21.2811 16.1253 21.918C16.001 22.4556 15.6143 23.1023 14.8655 23.2918C13.948 23.524 12.9879 23.6471 12.0002 23.6471C11.0126 23.6471 10.0526 23.524 9.13513 23.2919C8.38624 23.1024 7.99959 22.4556 7.87525 21.918C7.72796 21.2811 7.32834 20.7074 6.71902 20.3556C6.15881 20.0322 5.52543 19.9562 4.94129 20.094C4.40442 20.2206 3.65479 20.1604 3.15314 19.5749C2.22068 18.4866 1.48511 17.2235 1.00246 15.841C0.714278 15.0155 1.16078 14.2722 1.63221 13.8838C2.17639 13.4354 2.5211 12.7589 2.5211 12.0013C2.5211 11.2437 2.17639 10.5672 1.63221 10.1188C1.16078 9.73042 0.714279 8.9871 1.00246 8.16161C1.48517 6.77892 2.22085 5.51575 3.15346 4.42736C3.65507 3.84196 4.40461 3.78167 4.94144 3.90826C5.52554 4.046 6.15886 3.97003 6.71903 3.64662C7.32827 3.29487 7.72787 2.72124 7.87521 2.08448C7.99959 1.54692 8.38624 0.900237 9.13504 0.710758ZM12.0002 15.2513C10.2053 15.2513 8.7502 13.7962 8.7502 12.0013C8.7502 10.2064 10.2053 8.7513 12.0002 8.7513C13.7951 8.7513 15.2502 10.2064 15.2502 12.0013C15.2502 13.7962 13.7951 15.2513 12.0002 15.2513Z" fill="#776284"/>
</svg>
